<svg xmlns="http://www.w3.org/2000/svg" viewBox="0 0 1420 1010" width="1420" height="1010">
<rect x="0" y="0" width="1420" height="1010" fill="#000000"/>
<text x="24.0" y="30.0" font-family="Arial,Helvetica,sans-serif" font-size="15" fill="#e8e8e8" text-anchor="start" font-weight="700">Solana (SOL-USD)  ·  Woche  ·  Kurse in USD  ·  Analyse vom 21.08.2026  ·  Stand 21.08.2026</text>
<line x1="24" y1="900.0" x2="1300" y2="900.0" stroke="#1c1c1c" stroke-width="1"/>
<line x1="24" y1="794.5" x2="1300" y2="794.5" stroke="#1c1c1c" stroke-width="1"/>
<line x1="24" y1="689.0" x2="1300" y2="689.0" stroke="#1c1c1c" stroke-width="1"/>
<line x1="24" y1="583.5" x2="1300" y2="583.5" stroke="#1c1c1c" stroke-width="1"/>
<line x1="24" y1="478.0" x2="1300" y2="478.0" stroke="#1c1c1c" stroke-width="1"/>
<line x1="24" y1="372.5" x2="1300" y2="372.5" stroke="#1c1c1c" stroke-width="1"/>
<line x1="24" y1="267.0" x2="1300" y2="267.0" stroke="#1c1c1c" stroke-width="1"/>
<line x1="24" y1="161.5" x2="1300" y2="161.5" stroke="#1c1c1c" stroke-width="1"/>
<line x1="24" y1="56.0" x2="1300" y2="56.0" stroke="#1c1c1c" stroke-width="1"/>
<line x1="158.3" y1="56" x2="158.3" y2="900" stroke="#161616" stroke-width="1"/>
<text x="158.3" y="918.0" font-family="Arial,Helvetica,sans-serif" font-size="11" fill="#8a94a3" text-anchor="middle" font-weight="400">Jul 25</text>
<line x1="316.7" y1="56" x2="316.7" y2="900" stroke="#161616" stroke-width="1"/>
<text x="316.7" y="918.0" font-family="Arial,Helvetica,sans-serif" font-size="11" fill="#8a94a3" text-anchor="middle" font-weight="400">Oct 25</text>
<line x1="475.2" y1="56" x2="475.2" y2="900" stroke="#161616" stroke-width="1"/>
<text x="475.2" y="918.0" font-family="Arial,Helvetica,sans-serif" font-size="11" fill="#8a94a3" text-anchor="middle" font-weight="400">Jan 26</text>
<line x1="630.1" y1="56" x2="630.1" y2="900" stroke="#161616" stroke-width="1"/>
<text x="630.1" y="918.0" font-family="Arial,Helvetica,sans-serif" font-size="11" fill="#8a94a3" text-anchor="middle" font-weight="400">Apr 26</text>
<line x1="786.8" y1="56" x2="786.8" y2="900" stroke="#161616" stroke-width="1"/>
<text x="786.8" y="918.0" font-family="Arial,Helvetica,sans-serif" font-size="11" fill="#8a94a3" text-anchor="middle" font-weight="400">Jul 26</text>
<line x1="945.3" y1="56" x2="945.3" y2="900" stroke="#161616" stroke-width="1"/>
<text x="945.3" y="918.0" font-family="Arial,Helvetica,sans-serif" font-size="11" fill="#8a94a3" text-anchor="middle" font-weight="400">Oct 26</text>
<line x1="1103.7" y1="56" x2="1103.7" y2="900" stroke="#161616" stroke-width="1"/>
<text x="1103.7" y="918.0" font-family="Arial,Helvetica,sans-serif" font-size="11" fill="#8a94a3" text-anchor="middle" font-weight="400">Jan 27</text>
<line x1="1258.7" y1="56" x2="1258.7" y2="900" stroke="#161616" stroke-width="1"/>
<text x="1258.7" y="918.0" font-family="Arial,Helvetica,sans-serif" font-size="11" fill="#8a94a3" text-anchor="middle" font-weight="400">Apr 27</text>
<rect x="24" y="714.7" width="1276" height="9.5" fill="#00c853" fill-opacity="0.13"/>
<line x1="24" y1="714.7" x2="1300" y2="714.7" stroke="#00c853" stroke-width="1.4"/>
<rect x="24" y="658.4" width="1276" height="28.1" fill="#00c853" fill-opacity="0.13"/>
<line x1="24" y1="658.4" x2="1300" y2="658.4" stroke="#00c853" stroke-width="1.4"/>
<rect x="24" y="552.0" width="1276" height="12.0" fill="#00c853" fill-opacity="0.13"/>
<line x1="24" y1="552.0" x2="1300" y2="552.0" stroke="#00c853" stroke-width="1.4"/>
<rect x="24" y="825.6" width="1276" height="3.3" fill="#ff3b3b" fill-opacity="0.13"/>
<line x1="24" y1="825.6" x2="1300" y2="825.6" stroke="#ff3b3b" stroke-width="1.4"/>
<rect x="24" y="853.2" width="1276" height="1.6" fill="#ff3b3b" fill-opacity="0.13"/>
<line x1="24" y1="853.2" x2="1300" y2="853.2" stroke="#ff3b3b" stroke-width="1.4"/>
<text x="32.0" y="90.0" font-family="Arial,Helvetica,sans-serif" font-size="13" fill="#ff3b3b" text-anchor="start" font-weight="700" font-style="italic">Long-term Entry: nicht bestimmbar</text>
<line x1="29.2" y1="581.7" x2="29.2" y2="610.8" stroke="#d9d9d9" stroke-width="1.2"/>
<rect x="25.5" y="594.5" width="7.4" height="11.7" fill="#ffffff" stroke="#d9d9d9" stroke-width="1.1"/>
<line x1="41.2" y1="536.9" x2="41.2" y2="606.0" stroke="#d9d9d9" stroke-width="1.2"/>
<rect x="37.5" y="561.5" width="7.4" height="36.4" fill="#ffffff" stroke="#d9d9d9" stroke-width="1.1"/>
<line x1="53.3" y1="543.8" x2="53.3" y2="585.2" stroke="#d9d9d9" stroke-width="1.2"/>
<rect x="49.6" y="562.9" width="7.4" height="12.1" fill="#000000" stroke="#d9d9d9" stroke-width="1.1"/>
<line x1="65.3" y1="462.6" x2="65.3" y2="582.2" stroke="#d9d9d9" stroke-width="1.2"/>
<rect x="61.6" y="483.4" width="7.4" height="83.0" fill="#ffffff" stroke="#d9d9d9" stroke-width="1.1"/>
<line x1="77.4" y1="446.6" x2="77.4" y2="511.1" stroke="#d9d9d9" stroke-width="1.2"/>
<rect x="73.7" y="479.6" width="7.4" height="1.1" fill="#000000" stroke="#d9d9d9" stroke-width="1.1"/>
<line x1="89.4" y1="438.5" x2="89.4" y2="525.6" stroke="#d9d9d9" stroke-width="1.2"/>
<rect x="85.7" y="474.9" width="7.4" height="27.9" fill="#ffffff" stroke="#d9d9d9" stroke-width="1.1"/>
<line x1="101.5" y1="463.9" x2="101.5" y2="553.3" stroke="#d9d9d9" stroke-width="1.2"/>
<rect x="97.8" y="477.5" width="7.4" height="53.9" fill="#000000" stroke="#d9d9d9" stroke-width="1.1"/>
<line x1="113.5" y1="513.8" x2="113.5" y2="581.5" stroke="#d9d9d9" stroke-width="1.2"/>
<rect x="109.8" y="533.9" width="7.4" height="14.4" fill="#000000" stroke="#d9d9d9" stroke-width="1.1"/>
<line x1="125.6" y1="499.2" x2="125.6" y2="582.9" stroke="#d9d9d9" stroke-width="1.2"/>
<rect x="121.9" y="521.0" width="7.4" height="26.1" fill="#000000" stroke="#d9d9d9" stroke-width="1.1"/>
<line x1="137.7" y1="528.8" x2="137.7" y2="629.0" stroke="#d9d9d9" stroke-width="1.2"/>
<rect x="133.9" y="553.2" width="7.4" height="60.7" fill="#000000" stroke="#d9d9d9" stroke-width="1.1"/>
<line x1="149.7" y1="542.0" x2="149.7" y2="615.3" stroke="#d9d9d9" stroke-width="1.2"/>
<rect x="146.0" y="545.4" width="7.4" height="26.8" fill="#ffffff" stroke="#d9d9d9" stroke-width="1.1"/>
<line x1="161.8" y1="525.6" x2="161.8" y2="571.0" stroke="#d9d9d9" stroke-width="1.2"/>
<rect x="158.0" y="541.0" width="7.4" height="9.0" fill="#000000" stroke="#d9d9d9" stroke-width="1.1"/>
<line x1="173.8" y1="499.5" x2="173.8" y2="562.9" stroke="#d9d9d9" stroke-width="1.2"/>
<rect x="170.1" y="520.7" width="7.4" height="38.8" fill="#ffffff" stroke="#d9d9d9" stroke-width="1.1"/>
<line x1="185.9" y1="447.7" x2="185.9" y2="532.0" stroke="#d9d9d9" stroke-width="1.2"/>
<rect x="182.2" y="456.6" width="7.4" height="60.7" fill="#ffffff" stroke="#d9d9d9" stroke-width="1.1"/>
<line x1="197.9" y1="379.9" x2="197.9" y2="472.7" stroke="#d9d9d9" stroke-width="1.2"/>
<rect x="194.2" y="411.0" width="7.4" height="22.9" fill="#000000" stroke="#d9d9d9" stroke-width="1.1"/>
<line x1="210.0" y1="415.3" x2="210.0" y2="536.8" stroke="#d9d9d9" stroke-width="1.2"/>
<rect x="206.3" y="453.4" width="7.4" height="64.9" fill="#000000" stroke="#d9d9d9" stroke-width="1.1"/>
<line x1="222.0" y1="442.8" x2="222.0" y2="520.0" stroke="#d9d9d9" stroke-width="1.2"/>
<rect x="218.3" y="452.3" width="7.4" height="42.5" fill="#ffffff" stroke="#d9d9d9" stroke-width="1.1"/>
<line x1="234.1" y1="368.0" x2="234.1" y2="481.3" stroke="#d9d9d9" stroke-width="1.2"/>
<rect x="230.4" y="426.3" width="7.4" height="51.0" fill="#ffffff" stroke="#d9d9d9" stroke-width="1.1"/>
<line x1="246.1" y1="361.4" x2="246.1" y2="474.1" stroke="#d9d9d9" stroke-width="1.2"/>
<rect x="242.4" y="380.0" width="7.4" height="71.8" fill="#ffffff" stroke="#d9d9d9" stroke-width="1.1"/>
<line x1="258.2" y1="342.2" x2="258.2" y2="442.5" stroke="#d9d9d9" stroke-width="1.2"/>
<rect x="254.5" y="395.7" width="7.4" height="42.8" fill="#ffffff" stroke="#d9d9d9" stroke-width="1.1"/>
<line x1="270.2" y1="358.0" x2="270.2" y2="416.1" stroke="#d9d9d9" stroke-width="1.2"/>
<rect x="266.5" y="378.0" width="7.4" height="29.5" fill="#ffffff" stroke="#d9d9d9" stroke-width="1.1"/>
<line x1="282.3" y1="243.7" x2="282.3" y2="380.4" stroke="#d9d9d9" stroke-width="1.2"/>
<rect x="278.6" y="270.6" width="7.4" height="83.1" fill="#ffffff" stroke="#d9d9d9" stroke-width="1.1"/>
<line x1="294.4" y1="230.8" x2="294.4" y2="302.4" stroke="#d9d9d9" stroke-width="1.2"/>
<rect x="290.6" y="283.2" width="7.4" height="7.0" fill="#ffffff" stroke="#d9d9d9" stroke-width="1.1"/>
<line x1="306.4" y1="282.3" x2="306.4" y2="426.4" stroke="#d9d9d9" stroke-width="1.2"/>
<rect x="302.7" y="333.8" width="7.4" height="30.7" fill="#000000" stroke="#d9d9d9" stroke-width="1.1"/>
<line x1="318.5" y1="282.5" x2="318.5" y2="384.0" stroke="#d9d9d9" stroke-width="1.2"/>
<rect x="314.7" y="308.3" width="7.4" height="49.0" fill="#ffffff" stroke="#d9d9d9" stroke-width="1.1"/>
<line x1="330.5" y1="280.8" x2="330.5" y2="481.8" stroke="#d9d9d9" stroke-width="1.2"/>
<rect x="326.8" y="296.0" width="7.4" height="110.3" fill="#000000" stroke="#d9d9d9" stroke-width="1.1"/>
<line x1="342.6" y1="363.4" x2="342.6" y2="478.0" stroke="#d9d9d9" stroke-width="1.2"/>
<rect x="338.9" y="372.1" width="7.4" height="64.8" fill="#000000" stroke="#d9d9d9" stroke-width="1.1"/>
<line x1="354.6" y1="396.5" x2="354.6" y2="468.8" stroke="#d9d9d9" stroke-width="1.2"/>
<rect x="350.9" y="398.3" width="7.4" height="32.4" fill="#ffffff" stroke="#d9d9d9" stroke-width="1.1"/>
<line x1="366.7" y1="382.6" x2="366.7" y2="463.9" stroke="#d9d9d9" stroke-width="1.2"/>
<rect x="363.0" y="402.4" width="7.4" height="34.4" fill="#000000" stroke="#d9d9d9" stroke-width="1.1"/>
<line x1="378.7" y1="433.9" x2="378.7" y2="566.2" stroke="#d9d9d9" stroke-width="1.2"/>
<rect x="375.0" y="505.3" width="7.4" height="5.2" fill="#000000" stroke="#d9d9d9" stroke-width="1.1"/>
<line x1="390.8" y1="487.9" x2="390.8" y2="603.3" stroke="#d9d9d9" stroke-width="1.2"/>
<rect x="387.1" y="501.2" width="7.4" height="94.8" fill="#000000" stroke="#d9d9d9" stroke-width="1.1"/>
<line x1="402.8" y1="573.8" x2="402.8" y2="643.3" stroke="#d9d9d9" stroke-width="1.2"/>
<rect x="399.1" y="616.3" width="7.4" height="1.0" fill="#000000" stroke="#d9d9d9" stroke-width="1.1"/>
<line x1="414.9" y1="573.4" x2="414.9" y2="623.6" stroke="#d9d9d9" stroke-width="1.2"/>
<rect x="411.2" y="592.6" width="7.4" height="15.1" fill="#000000" stroke="#d9d9d9" stroke-width="1.1"/>
<line x1="426.9" y1="566.3" x2="426.9" y2="640.0" stroke="#d9d9d9" stroke-width="1.2"/>
<rect x="423.2" y="612.4" width="7.4" height="17.0" fill="#ffffff" stroke="#d9d9d9" stroke-width="1.1"/>
<line x1="439.0" y1="572.5" x2="439.0" y2="622.4" stroke="#d9d9d9" stroke-width="1.2"/>
<rect x="435.3" y="608.6" width="7.4" height="12.0" fill="#000000" stroke="#d9d9d9" stroke-width="1.1"/>
<line x1="451.1" y1="604.1" x2="451.1" y2="658.9" stroke="#d9d9d9" stroke-width="1.2"/>
<rect x="447.3" y="626.0" width="7.4" height="5.6" fill="#000000" stroke="#d9d9d9" stroke-width="1.1"/>
<line x1="463.1" y1="624.1" x2="463.1" y2="651.8" stroke="#d9d9d9" stroke-width="1.2"/>
<rect x="459.4" y="632.2" width="7.4" height="1.9" fill="#000000" stroke="#d9d9d9" stroke-width="1.1"/>
<line x1="475.2" y1="602.1" x2="475.2" y2="642.8" stroke="#d9d9d9" stroke-width="1.2"/>
<rect x="471.4" y="606.7" width="7.4" height="33.9" fill="#ffffff" stroke="#d9d9d9" stroke-width="1.1"/>
<line x1="487.2" y1="577.9" x2="487.2" y2="610.1" stroke="#d9d9d9" stroke-width="1.2"/>
<rect x="483.5" y="589.1" width="7.4" height="4.7" fill="#ffffff" stroke="#d9d9d9" stroke-width="1.1"/>
<line x1="499.3" y1="561.6" x2="499.3" y2="594.4" stroke="#d9d9d9" stroke-width="1.2"/>
<rect x="495.6" y="590.2" width="7.4" height="3.6" fill="#000000" stroke="#d9d9d9" stroke-width="1.1"/>
<line x1="511.3" y1="593.8" x2="511.3" y2="658.1" stroke="#d9d9d9" stroke-width="1.2"/>
<rect x="507.6" y="608.4" width="7.4" height="45.9" fill="#000000" stroke="#d9d9d9" stroke-width="1.1"/>
<line x1="523.4" y1="625.4" x2="523.4" y2="718.1" stroke="#d9d9d9" stroke-width="1.2"/>
<rect x="519.7" y="637.4" width="7.4" height="73.4" fill="#000000" stroke="#d9d9d9" stroke-width="1.1"/>
<line x1="535.4" y1="695.6" x2="535.4" y2="812.1" stroke="#d9d9d9" stroke-width="1.2"/>
<rect x="531.7" y="699.4" width="7.4" height="54.9" fill="#000000" stroke="#d9d9d9" stroke-width="1.1"/>
<line x1="547.5" y1="741.6" x2="547.5" y2="787.0" stroke="#d9d9d9" stroke-width="1.2"/>
<rect x="543.8" y="755.4" width="7.4" height="2.2" fill="#000000" stroke="#d9d9d9" stroke-width="1.1"/>
<line x1="559.5" y1="752.7" x2="559.5" y2="777.3" stroke="#d9d9d9" stroke-width="1.2"/>
<rect x="555.8" y="756.2" width="7.4" height="11.5" fill="#000000" stroke="#d9d9d9" stroke-width="1.1"/>
<line x1="571.6" y1="741.7" x2="571.6" y2="789.0" stroke="#d9d9d9" stroke-width="1.2"/>
<rect x="567.9" y="765.2" width="7.4" height="18.4" fill="#ffffff" stroke="#d9d9d9" stroke-width="1.1"/>
<line x1="583.6" y1="732.9" x2="583.6" y2="774.3" stroke="#d9d9d9" stroke-width="1.2"/>
<rect x="579.9" y="755.6" width="7.4" height="15.8" fill="#000000" stroke="#d9d9d9" stroke-width="1.1"/>
<line x1="595.7" y1="735.5" x2="595.7" y2="771.5" stroke="#d9d9d9" stroke-width="1.2"/>
<rect x="592.0" y="737.9" width="7.4" height="23.0" fill="#ffffff" stroke="#d9d9d9" stroke-width="1.1"/>
<line x1="607.8" y1="721.6" x2="607.8" y2="759.8" stroke="#d9d9d9" stroke-width="1.2"/>
<rect x="604.0" y="725.4" width="7.4" height="31.8" fill="#000000" stroke="#d9d9d9" stroke-width="1.1"/>
<line x1="619.8" y1="734.7" x2="619.8" y2="777.8" stroke="#d9d9d9" stroke-width="1.2"/>
<rect x="616.1" y="740.5" width="7.4" height="31.5" fill="#000000" stroke="#d9d9d9" stroke-width="1.1"/>
<line x1="631.9" y1="756.4" x2="631.9" y2="786.5" stroke="#d9d9d9" stroke-width="1.2"/>
<rect x="628.2" y="768.8" width="7.4" height="1.9" fill="#000000" stroke="#d9d9d9" stroke-width="1.1"/>
<line x1="643.9" y1="755.0" x2="643.9" y2="781.4" stroke="#d9d9d9" stroke-width="1.2"/>
<rect x="640.2" y="771.7" width="7.4" height="4.4" fill="#ffffff" stroke="#d9d9d9" stroke-width="1.1"/>
<line x1="656.0" y1="742.9" x2="656.0" y2="771.7" stroke="#d9d9d9" stroke-width="1.2"/>
<rect x="652.3" y="755.5" width="7.4" height="9.7" fill="#000000" stroke="#d9d9d9" stroke-width="1.1"/>
<line x1="668.0" y1="747.3" x2="668.0" y2="765.5" stroke="#d9d9d9" stroke-width="1.2"/>
<rect x="664.3" y="754.5" width="7.4" height="5.2" fill="#ffffff" stroke="#d9d9d9" stroke-width="1.1"/>
<line x1="680.1" y1="751.1" x2="680.1" y2="771.4" stroke="#d9d9d9" stroke-width="1.2"/>
<rect x="676.4" y="761.3" width="7.4" height="2.9" fill="#000000" stroke="#d9d9d9" stroke-width="1.1"/>
<line x1="692.1" y1="723.5" x2="692.1" y2="765.9" stroke="#d9d9d9" stroke-width="1.2"/>
<rect x="688.4" y="724.7" width="7.4" height="38.9" fill="#ffffff" stroke="#d9d9d9" stroke-width="1.1"/>
<line x1="704.2" y1="718.9" x2="704.2" y2="764.5" stroke="#d9d9d9" stroke-width="1.2"/>
<rect x="700.5" y="721.8" width="7.4" height="38.4" fill="#000000" stroke="#d9d9d9" stroke-width="1.1"/>
<line x1="716.2" y1="752.0" x2="716.2" y2="771.2" stroke="#d9d9d9" stroke-width="1.2"/>
<rect x="712.5" y="759.8" width="7.4" height="1.0" fill="#000000" stroke="#d9d9d9" stroke-width="1.1"/>
<line x1="728.3" y1="756.4" x2="728.3" y2="776.4" stroke="#d9d9d9" stroke-width="1.2"/>
<rect x="724.6" y="760.7" width="7.4" height="8.5" fill="#000000" stroke="#d9d9d9" stroke-width="1.1"/>
<line x1="740.4" y1="767.4" x2="740.4" y2="838.2" stroke="#d9d9d9" stroke-width="1.2"/>
<rect x="736.6" y="773.1" width="7.4" height="46.6" fill="#000000" stroke="#d9d9d9" stroke-width="1.1"/>
<line x1="752.4" y1="804.3" x2="752.4" y2="832.0" stroke="#d9d9d9" stroke-width="1.2"/>
<rect x="748.7" y="804.3" width="7.4" height="13.8" fill="#ffffff" stroke="#d9d9d9" stroke-width="1.1"/>
<line x1="764.5" y1="789.3" x2="764.5" y2="814.6" stroke="#d9d9d9" stroke-width="1.2"/>
<rect x="760.7" y="795.5" width="7.4" height="4.9" fill="#000000" stroke="#d9d9d9" stroke-width="1.1"/>
<line x1="776.5" y1="792.6" x2="776.5" y2="825.6" stroke="#d9d9d9" stroke-width="1.2"/>
<rect x="772.8" y="802.0" width="7.4" height="1.9" fill="#000000" stroke="#d9d9d9" stroke-width="1.1"/>
<line x1="788.6" y1="764.5" x2="788.6" y2="806.4" stroke="#d9d9d9" stroke-width="1.2"/>
<rect x="784.9" y="772.0" width="7.4" height="20.4" fill="#ffffff" stroke="#d9d9d9" stroke-width="1.1"/>
<line x1="800.6" y1="766.9" x2="800.6" y2="789.7" stroke="#d9d9d9" stroke-width="1.2"/>
<rect x="796.9" y="770.5" width="7.4" height="15.9" fill="#000000" stroke="#d9d9d9" stroke-width="1.1"/>
<line x1="812.7" y1="780.0" x2="812.7" y2="797.3" stroke="#d9d9d9" stroke-width="1.2"/>
<rect x="809.0" y="788.0" width="7.4" height="4.7" fill="#ffffff" stroke="#d9d9d9" stroke-width="1.1"/>
<line x1="824.7" y1="780.5" x2="824.7" y2="797.1" stroke="#d9d9d9" stroke-width="1.2"/>
<rect x="821.0" y="783.5" width="7.4" height="3.7" fill="#000000" stroke="#d9d9d9" stroke-width="1.1"/>
<line x1="836.8" y1="784.8" x2="836.8" y2="805.8" stroke="#d9d9d9" stroke-width="1.2"/>
<rect x="833.1" y="795.0" width="7.4" height="2.2" fill="#000000" stroke="#d9d9d9" stroke-width="1.1"/>
<line x1="848.8" y1="784.0" x2="848.8" y2="801.8" stroke="#d9d9d9" stroke-width="1.2"/>
<rect x="845.1" y="788.4" width="7.4" height="8.6" fill="#ffffff" stroke="#d9d9d9" stroke-width="1.1"/>
<line x1="860.9" y1="785.9" x2="860.9" y2="794.8" stroke="#d9d9d9" stroke-width="1.2"/>
<rect x="857.2" y="789.3" width="7.4" height="4.4" fill="#000000" stroke="#d9d9d9" stroke-width="1.1"/>
<line x1="872.9" y1="708.0" x2="872.9" y2="794.1" stroke="#8a94a3" stroke-width="1.2"/>
<rect x="869.2" y="732.7" width="7.4" height="56.6" fill="#ffffff" stroke="#8a94a3" stroke-width="1.1"/>
<line x1="874.7" y1="56" x2="874.7" y2="900" stroke="#8a94a3" stroke-width="1" stroke-dasharray="5,5"/>
<text x="868.7" y="70.0" font-family="Arial,Helvetica,sans-serif" font-size="11" fill="#8a94a3" text-anchor="end" font-weight="400">heute</text>
<line x1="24" y1="838.2" x2="1300" y2="838.2" stroke="#ff3b3b" stroke-width="1.2" stroke-dasharray="8,5"/>
<text x="32.0" y="852.2" font-family="Arial,Helvetica,sans-serif" font-size="11" fill="#ff3b3b" text-anchor="start" font-weight="400" font-style="italic">hart A: 60.41</text>
<line x1="24" y1="101.2" x2="1300" y2="101.2" stroke="#00c853" stroke-width="1.2" stroke-dasharray="8,5"/>
<text x="32.0" y="115.2" font-family="Arial,Helvetica,sans-serif" font-size="11" fill="#00c853" text-anchor="start" font-weight="400" font-style="italic">hart B: 294.3</text>
<line x1="874.7" y1="718.9" x2="1300" y2="718.9" stroke="#ff4fd8" stroke-width="1" stroke-dasharray="3,4"/>
<line x1="874.7" y1="838.2" x2="1300" y2="838.2" stroke="#ff4fd8" stroke-width="1" stroke-dasharray="3,4"/>
<text x="882.7" y="714.9" font-family="Arial,Helvetica,sans-serif" font-size="10.5" fill="#ff4fd8" text-anchor="start" font-weight="400" font-style="italic">Wechsel ▲ $98.27</text>
<text x="882.7" y="834.2" font-family="Arial,Helvetica,sans-serif" font-size="10.5" fill="#ff4fd8" text-anchor="start" font-weight="400" font-style="italic">Wechsel ▼ $60.41</text>
<path d="M 874.7,732.7 L 992.8,719.5 L 1046.0,712.4 L 1111.0,672.5 L 1164.1,655.3 L 1229.1,558.1" fill="none" stroke="#00c853" stroke-width="3" stroke-linejoin="round" stroke-linecap="round"/>
<rect x="1205.1" y="532.1" width="48" height="20" rx="3" fill="#ffffff"/>
<text x="1229.1" y="546.1" font-family="Arial,Helvetica,sans-serif" font-size="12" fill="#000" text-anchor="middle" font-weight="700">55 %</text>
<path d="M 874.7,732.7 L 943.4,827.2 L 974.3,831.2 L 1012.1,854.0" fill="none" stroke="#ff3b3b" stroke-width="3" stroke-dasharray="9,6" stroke-linejoin="round" stroke-linecap="round"/>
<rect x="988.1" y="828.0" width="48" height="20" rx="3" fill="#ffffff"/>
<text x="1012.1" y="842.0" font-family="Arial,Helvetica,sans-serif" font-size="12" fill="#000" text-anchor="middle" font-weight="700">45 %</text>
<line x1="24" y1="732.7" x2="1300" y2="732.7" stroke="#ffffff" stroke-width="0.8" stroke-dasharray="2,4"/>
<rect x="1306" y="549.1" width="112" height="18" rx="3" fill="#00c853"/>
<text x="1362.0" y="562.1" font-family="Arial,Helvetica,sans-serif" font-size="10.5" fill="#000" text-anchor="middle" font-weight="700">▲ 147.4 – 151.2</text>
<rect x="1306" y="663.5" width="112" height="18" rx="3" fill="#00c853"/>
<text x="1362.0" y="676.5" font-family="Arial,Helvetica,sans-serif" font-size="10.5" fill="#000" text-anchor="middle" font-weight="700">▲ 108.5 – 117.5</text>
<rect x="1306" y="710.5" width="112" height="18" rx="3" fill="#00c853"/>
<text x="1362.0" y="723.5" font-family="Arial,Helvetica,sans-serif" font-size="10.5" fill="#000" text-anchor="middle" font-weight="700">▲ 96.59 – 99.61</text>
<rect x="1306" y="730.5" width="112" height="18" rx="3" fill="#ffffff"/>
<text x="1362.0" y="743.5" font-family="Arial,Helvetica,sans-serif" font-size="10.5" fill="#000" text-anchor="middle" font-weight="700">93.91</text>
<line x1="1300" y1="732.7" x2="1306" y2="739.5" stroke="#ffffff" stroke-width="1"/>
<rect x="1306" y="818.2" width="112" height="18" rx="3" fill="#ff3b3b"/>
<text x="1362.0" y="831.2" font-family="Arial,Helvetica,sans-serif" font-size="10.5" fill="#000" text-anchor="middle" font-weight="700">▼ 63.38 – 64.42</text>
<rect x="1306" y="845.0" width="112" height="18" rx="3" fill="#ff3b3b"/>
<text x="1362.0" y="858.0" font-family="Arial,Helvetica,sans-serif" font-size="10.5" fill="#000" text-anchor="middle" font-weight="700">▼ 55.15 – 55.66</text>
<text x="1308.0" y="904.0" font-family="Arial,Helvetica,sans-serif" font-size="12" fill="#8a94a3" text-anchor="start" font-weight="400">40.80</text>
<text x="1308.0" y="798.5" font-family="Arial,Helvetica,sans-serif" font-size="12" fill="#8a94a3" text-anchor="start" font-weight="400">74.28</text>
<text x="1308.0" y="693.0" font-family="Arial,Helvetica,sans-serif" font-size="12" fill="#8a94a3" text-anchor="start" font-weight="400">107.8</text>
<text x="1308.0" y="587.5" font-family="Arial,Helvetica,sans-serif" font-size="12" fill="#8a94a3" text-anchor="start" font-weight="400">141.3</text>
<text x="1308.0" y="482.0" font-family="Arial,Helvetica,sans-serif" font-size="12" fill="#8a94a3" text-anchor="start" font-weight="400">174.7</text>
<text x="1308.0" y="376.5" font-family="Arial,Helvetica,sans-serif" font-size="12" fill="#8a94a3" text-anchor="start" font-weight="400">208.2</text>
<text x="1308.0" y="271.0" font-family="Arial,Helvetica,sans-serif" font-size="12" fill="#8a94a3" text-anchor="start" font-weight="400">241.7</text>
<text x="1308.0" y="165.5" font-family="Arial,Helvetica,sans-serif" font-size="12" fill="#8a94a3" text-anchor="start" font-weight="400">275.2</text>
<text x="1308.0" y="60.0" font-family="Arial,Helvetica,sans-serif" font-size="12" fill="#8a94a3" text-anchor="start" font-weight="400">308.7</text>
<text x="24.0" y="970.0" font-family="Arial,Helvetica,sans-serif" font-size="11" fill="#8a94a3" text-anchor="start" font-weight="400">Zeitachse nach rechts verlängert als Zeichenraum für die Pfade — keine Terminaussage.</text>
<text x="24.0" y="990.0" font-family="Arial,Helvetica,sans-serif" font-size="11" fill="#8a94a3" text-anchor="start" font-weight="400">Technische Chartstudie im HKCM-Stil. Keine Anlageberatung. Zonen sind Wahrscheinlichkeitsannahmen, keine Zusagen.</text>
</svg>