<svg xmlns="http://www.w3.org/2000/svg" viewBox="0 0 1420 1010" width="1420" height="1010">
<rect x="0" y="0" width="1420" height="1010" fill="#000000"/>
<text x="24.0" y="30.0" font-family="Arial,Helvetica,sans-serif" font-size="15" fill="#e8e8e8" text-anchor="start" font-weight="700">C3.ai, Inc. (AI)  ·  Woche  ·  Kurse in USD  ·  Analyse vom 18.09.2026  ·  Stand 20.09.2026</text>
<line x1="24" y1="900.0" x2="1300" y2="900.0" stroke="#1c1c1c" stroke-width="1"/>
<line x1="24" y1="794.5" x2="1300" y2="794.5" stroke="#1c1c1c" stroke-width="1"/>
<line x1="24" y1="689.0" x2="1300" y2="689.0" stroke="#1c1c1c" stroke-width="1"/>
<line x1="24" y1="583.5" x2="1300" y2="583.5" stroke="#1c1c1c" stroke-width="1"/>
<line x1="24" y1="478.0" x2="1300" y2="478.0" stroke="#1c1c1c" stroke-width="1"/>
<line x1="24" y1="372.5" x2="1300" y2="372.5" stroke="#1c1c1c" stroke-width="1"/>
<line x1="24" y1="267.0" x2="1300" y2="267.0" stroke="#1c1c1c" stroke-width="1"/>
<line x1="24" y1="161.5" x2="1300" y2="161.5" stroke="#1c1c1c" stroke-width="1"/>
<line x1="24" y1="56.0" x2="1300" y2="56.0" stroke="#1c1c1c" stroke-width="1"/>
<line x1="109.8" y1="56" x2="109.8" y2="900" stroke="#161616" stroke-width="1"/>
<text x="109.8" y="918.0" font-family="Arial,Helvetica,sans-serif" font-size="11" fill="#8a94a3" text-anchor="middle" font-weight="400">Jul 25</text>
<line x1="267.5" y1="56" x2="267.5" y2="900" stroke="#161616" stroke-width="1"/>
<text x="267.5" y="918.0" font-family="Arial,Helvetica,sans-serif" font-size="11" fill="#8a94a3" text-anchor="middle" font-weight="400">Oct 25</text>
<line x1="425.3" y1="56" x2="425.3" y2="900" stroke="#161616" stroke-width="1"/>
<text x="425.3" y="918.0" font-family="Arial,Helvetica,sans-serif" font-size="11" fill="#8a94a3" text-anchor="middle" font-weight="400">Jan 26</text>
<line x1="579.7" y1="56" x2="579.7" y2="900" stroke="#161616" stroke-width="1"/>
<text x="579.7" y="918.0" font-family="Arial,Helvetica,sans-serif" font-size="11" fill="#8a94a3" text-anchor="middle" font-weight="400">Apr 26</text>
<line x1="735.7" y1="56" x2="735.7" y2="900" stroke="#161616" stroke-width="1"/>
<text x="735.7" y="918.0" font-family="Arial,Helvetica,sans-serif" font-size="11" fill="#8a94a3" text-anchor="middle" font-weight="400">Jul 26</text>
<line x1="893.5" y1="56" x2="893.5" y2="900" stroke="#161616" stroke-width="1"/>
<text x="893.5" y="918.0" font-family="Arial,Helvetica,sans-serif" font-size="11" fill="#8a94a3" text-anchor="middle" font-weight="400">Oct 26</text>
<line x1="1051.3" y1="56" x2="1051.3" y2="900" stroke="#161616" stroke-width="1"/>
<text x="1051.3" y="918.0" font-family="Arial,Helvetica,sans-serif" font-size="11" fill="#8a94a3" text-anchor="middle" font-weight="400">Jan 27</text>
<line x1="1205.7" y1="56" x2="1205.7" y2="900" stroke="#161616" stroke-width="1"/>
<text x="1205.7" y="918.0" font-family="Arial,Helvetica,sans-serif" font-size="11" fill="#8a94a3" text-anchor="middle" font-weight="400">Apr 27</text>
<rect x="24" y="701.3" width="1276" height="7.7" fill="#00c853" fill-opacity="0.13"/>
<line x1="24" y1="701.3" x2="1300" y2="701.3" stroke="#00c853" stroke-width="1.4"/>
<rect x="24" y="664.3" width="1276" height="11.7" fill="#00c853" fill-opacity="0.13"/>
<line x1="24" y1="664.3" x2="1300" y2="664.3" stroke="#00c853" stroke-width="1.4"/>
<rect x="24" y="616.8" width="1276" height="10.7" fill="#00c853" fill-opacity="0.13"/>
<line x1="24" y1="616.8" x2="1300" y2="616.8" stroke="#00c853" stroke-width="1.4"/>
<rect x="24" y="793.5" width="1276" height="9.4" fill="#ff3b3b" fill-opacity="0.13"/>
<line x1="24" y1="793.5" x2="1300" y2="793.5" stroke="#ff3b3b" stroke-width="1.4"/>
<rect x="24" y="822.2" width="1276" height="11.7" fill="#ff3b3b" fill-opacity="0.13"/>
<line x1="24" y1="822.2" x2="1300" y2="822.2" stroke="#ff3b3b" stroke-width="1.4"/>
<text x="32.0" y="90.0" font-family="Arial,Helvetica,sans-serif" font-size="13" fill="#ff3b3b" text-anchor="start" font-weight="700" font-style="italic">Long-term Entry: nicht bestimmbar</text>
<line x1="29.1" y1="300.9" x2="29.1" y2="331.9" stroke="#d9d9d9" stroke-width="1.2"/>
<rect x="25.4" y="304.3" width="7.4" height="1.0" fill="#ffffff" stroke="#d9d9d9" stroke-width="1.1"/>
<line x1="41.2" y1="323.0" x2="41.2" y2="384.6" stroke="#d9d9d9" stroke-width="1.2"/>
<rect x="37.4" y="337.0" width="7.4" height="15.4" fill="#000000" stroke="#d9d9d9" stroke-width="1.1"/>
<line x1="53.2" y1="101.2" x2="53.2" y2="342.7" stroke="#d9d9d9" stroke-width="1.2"/>
<rect x="49.4" y="223.1" width="7.4" height="89.2" fill="#ffffff" stroke="#d9d9d9" stroke-width="1.1"/>
<line x1="65.2" y1="216.8" x2="65.2" y2="285.9" stroke="#d9d9d9" stroke-width="1.2"/>
<rect x="61.4" y="244.5" width="7.4" height="32.7" fill="#ffffff" stroke="#d9d9d9" stroke-width="1.1"/>
<line x1="77.2" y1="220.1" x2="77.2" y2="333.3" stroke="#d9d9d9" stroke-width="1.2"/>
<rect x="73.5" y="247.5" width="7.4" height="70.1" fill="#000000" stroke="#d9d9d9" stroke-width="1.1"/>
<line x1="89.2" y1="284.6" x2="89.2" y2="329.8" stroke="#d9d9d9" stroke-width="1.2"/>
<rect x="85.5" y="294.6" width="7.4" height="28.4" fill="#000000" stroke="#d9d9d9" stroke-width="1.1"/>
<line x1="101.2" y1="274.2" x2="101.2" y2="347.0" stroke="#d9d9d9" stroke-width="1.2"/>
<rect x="97.5" y="301.6" width="7.4" height="27.7" fill="#ffffff" stroke="#d9d9d9" stroke-width="1.1"/>
<line x1="113.2" y1="228.5" x2="113.2" y2="313.9" stroke="#d9d9d9" stroke-width="1.2"/>
<rect x="109.5" y="251.2" width="7.4" height="39.4" fill="#ffffff" stroke="#d9d9d9" stroke-width="1.1"/>
<line x1="125.2" y1="183.4" x2="125.2" y2="281.2" stroke="#d9d9d9" stroke-width="1.2"/>
<rect x="121.5" y="233.1" width="7.4" height="21.4" fill="#ffffff" stroke="#d9d9d9" stroke-width="1.1"/>
<line x1="137.2" y1="126.9" x2="137.2" y2="250.8" stroke="#d9d9d9" stroke-width="1.2"/>
<rect x="133.5" y="152.3" width="7.4" height="63.8" fill="#ffffff" stroke="#d9d9d9" stroke-width="1.1"/>
<line x1="149.2" y1="105.6" x2="149.2" y2="244.7" stroke="#d9d9d9" stroke-width="1.2"/>
<rect x="145.5" y="165.0" width="7.4" height="77.5" fill="#000000" stroke="#d9d9d9" stroke-width="1.1"/>
<line x1="161.2" y1="229.0" x2="161.2" y2="371.1" stroke="#d9d9d9" stroke-width="1.2"/>
<rect x="157.5" y="249.8" width="7.4" height="112.2" fill="#000000" stroke="#d9d9d9" stroke-width="1.1"/>
<line x1="173.2" y1="317.6" x2="173.2" y2="374.1" stroke="#d9d9d9" stroke-width="1.2"/>
<rect x="169.5" y="336.7" width="7.4" height="35.4" fill="#000000" stroke="#d9d9d9" stroke-width="1.1"/>
<line x1="185.2" y1="488.7" x2="185.2" y2="620.2" stroke="#d9d9d9" stroke-width="1.2"/>
<rect x="181.5" y="515.0" width="7.4" height="46.1" fill="#ffffff" stroke="#d9d9d9" stroke-width="1.1"/>
<line x1="197.2" y1="493.4" x2="197.2" y2="567.4" stroke="#d9d9d9" stroke-width="1.2"/>
<rect x="193.5" y="503.3" width="7.4" height="23.4" fill="#000000" stroke="#d9d9d9" stroke-width="1.1"/>
<line x1="209.2" y1="520.7" x2="209.2" y2="552.9" stroke="#d9d9d9" stroke-width="1.2"/>
<rect x="205.5" y="540.4" width="7.4" height="6.0" fill="#000000" stroke="#d9d9d9" stroke-width="1.1"/>
<line x1="221.2" y1="538.7" x2="221.2" y2="616.8" stroke="#d9d9d9" stroke-width="1.2"/>
<rect x="217.5" y="549.4" width="7.4" height="40.1" fill="#000000" stroke="#d9d9d9" stroke-width="1.1"/>
<line x1="233.2" y1="549.0" x2="233.2" y2="598.6" stroke="#d9d9d9" stroke-width="1.2"/>
<rect x="229.5" y="562.4" width="7.4" height="23.0" fill="#ffffff" stroke="#d9d9d9" stroke-width="1.1"/>
<line x1="245.2" y1="498.8" x2="245.2" y2="563.4" stroke="#d9d9d9" stroke-width="1.2"/>
<rect x="241.5" y="513.3" width="7.4" height="12.4" fill="#ffffff" stroke="#d9d9d9" stroke-width="1.1"/>
<line x1="257.2" y1="477.6" x2="257.2" y2="541.7" stroke="#d9d9d9" stroke-width="1.2"/>
<rect x="253.5" y="492.9" width="7.4" height="45.8" fill="#000000" stroke="#d9d9d9" stroke-width="1.1"/>
<line x1="269.3" y1="467.6" x2="269.3" y2="546.0" stroke="#d9d9d9" stroke-width="1.2"/>
<rect x="265.5" y="471.2" width="7.4" height="61.4" fill="#ffffff" stroke="#d9d9d9" stroke-width="1.1"/>
<line x1="281.3" y1="435.8" x2="281.3" y2="520.7" stroke="#d9d9d9" stroke-width="1.2"/>
<rect x="277.5" y="454.5" width="7.4" height="58.4" fill="#000000" stroke="#d9d9d9" stroke-width="1.1"/>
<line x1="293.3" y1="449.9" x2="293.3" y2="526.7" stroke="#d9d9d9" stroke-width="1.2"/>
<rect x="289.5" y="464.2" width="7.4" height="55.4" fill="#000000" stroke="#d9d9d9" stroke-width="1.1"/>
<line x1="305.3" y1="483.6" x2="305.3" y2="536.9" stroke="#d9d9d9" stroke-width="1.2"/>
<rect x="301.6" y="496.0" width="7.4" height="19.0" fill="#000000" stroke="#d9d9d9" stroke-width="1.1"/>
<line x1="317.3" y1="488.6" x2="317.3" y2="548.7" stroke="#d9d9d9" stroke-width="1.2"/>
<rect x="313.6" y="498.0" width="7.4" height="26.0" fill="#000000" stroke="#d9d9d9" stroke-width="1.1"/>
<line x1="329.3" y1="525.5" x2="329.3" y2="619.7" stroke="#d9d9d9" stroke-width="1.2"/>
<rect x="325.6" y="538.7" width="7.4" height="54.1" fill="#000000" stroke="#d9d9d9" stroke-width="1.1"/>
<line x1="341.3" y1="528.2" x2="341.3" y2="657.3" stroke="#d9d9d9" stroke-width="1.2"/>
<rect x="337.6" y="574.1" width="7.4" height="67.1" fill="#000000" stroke="#d9d9d9" stroke-width="1.1"/>
<line x1="353.3" y1="638.4" x2="353.3" y2="690.6" stroke="#d9d9d9" stroke-width="1.2"/>
<rect x="349.6" y="655.9" width="7.4" height="6.3" fill="#ffffff" stroke="#d9d9d9" stroke-width="1.1"/>
<line x1="365.3" y1="625.7" x2="365.3" y2="667.6" stroke="#d9d9d9" stroke-width="1.2"/>
<rect x="361.6" y="628.5" width="7.4" height="31.1" fill="#ffffff" stroke="#d9d9d9" stroke-width="1.1"/>
<line x1="377.3" y1="581.1" x2="377.3" y2="643.9" stroke="#d9d9d9" stroke-width="1.2"/>
<rect x="373.6" y="607.5" width="7.4" height="33.1" fill="#ffffff" stroke="#d9d9d9" stroke-width="1.1"/>
<line x1="389.3" y1="563.4" x2="389.3" y2="607.8" stroke="#d9d9d9" stroke-width="1.2"/>
<rect x="385.6" y="594.8" width="7.4" height="6.3" fill="#000000" stroke="#d9d9d9" stroke-width="1.1"/>
<line x1="401.3" y1="599.5" x2="401.3" y2="653.1" stroke="#d9d9d9" stroke-width="1.2"/>
<rect x="397.6" y="621.9" width="7.4" height="7.0" fill="#000000" stroke="#d9d9d9" stroke-width="1.1"/>
<line x1="413.3" y1="609.2" x2="413.3" y2="653.6" stroke="#d9d9d9" stroke-width="1.2"/>
<rect x="409.6" y="622.9" width="7.4" height="21.0" fill="#000000" stroke="#d9d9d9" stroke-width="1.1"/>
<line x1="425.3" y1="630.2" x2="425.3" y2="664.3" stroke="#d9d9d9" stroke-width="1.2"/>
<rect x="421.6" y="645.2" width="7.4" height="6.7" fill="#000000" stroke="#d9d9d9" stroke-width="1.1"/>
<line x1="437.3" y1="635.4" x2="437.3" y2="659.6" stroke="#d9d9d9" stroke-width="1.2"/>
<rect x="433.6" y="642.9" width="7.4" height="4.0" fill="#ffffff" stroke="#d9d9d9" stroke-width="1.1"/>
<line x1="449.3" y1="627.5" x2="449.3" y2="676.6" stroke="#d9d9d9" stroke-width="1.2"/>
<rect x="445.6" y="638.5" width="7.4" height="37.1" fill="#000000" stroke="#d9d9d9" stroke-width="1.1"/>
<line x1="461.3" y1="674.8" x2="461.3" y2="701.3" stroke="#d9d9d9" stroke-width="1.2"/>
<rect x="457.6" y="687.3" width="7.4" height="6.7" fill="#ffffff" stroke="#d9d9d9" stroke-width="1.1"/>
<line x1="473.3" y1="636.9" x2="473.3" y2="747.1" stroke="#d9d9d9" stroke-width="1.2"/>
<rect x="469.6" y="679.3" width="7.4" height="64.1" fill="#000000" stroke="#d9d9d9" stroke-width="1.1"/>
<line x1="485.3" y1="719.0" x2="485.3" y2="777.5" stroke="#d9d9d9" stroke-width="1.2"/>
<rect x="481.6" y="722.0" width="7.4" height="24.4" fill="#ffffff" stroke="#d9d9d9" stroke-width="1.1"/>
<line x1="497.4" y1="708.3" x2="497.4" y2="770.1" stroke="#d9d9d9" stroke-width="1.2"/>
<rect x="493.6" y="722.4" width="7.4" height="28.7" fill="#000000" stroke="#d9d9d9" stroke-width="1.1"/>
<line x1="509.4" y1="746.1" x2="509.4" y2="771.8" stroke="#d9d9d9" stroke-width="1.2"/>
<rect x="505.6" y="763.8" width="7.4" height="1.0" fill="#000000" stroke="#d9d9d9" stroke-width="1.1"/>
<line x1="521.4" y1="759.4" x2="521.4" y2="852.9" stroke="#d9d9d9" stroke-width="1.2"/>
<rect x="517.7" y="784.2" width="7.4" height="61.4" fill="#000000" stroke="#d9d9d9" stroke-width="1.1"/>
<line x1="533.4" y1="791.2" x2="533.4" y2="853.1" stroke="#d9d9d9" stroke-width="1.2"/>
<rect x="529.7" y="804.2" width="7.4" height="18.0" fill="#ffffff" stroke="#d9d9d9" stroke-width="1.1"/>
<line x1="545.4" y1="796.5" x2="545.4" y2="819.9" stroke="#d9d9d9" stroke-width="1.2"/>
<rect x="541.7" y="801.5" width="7.4" height="12.0" fill="#000000" stroke="#d9d9d9" stroke-width="1.1"/>
<line x1="557.4" y1="809.5" x2="557.4" y2="834.2" stroke="#d9d9d9" stroke-width="1.2"/>
<rect x="553.7" y="817.2" width="7.4" height="11.0" fill="#000000" stroke="#d9d9d9" stroke-width="1.1"/>
<line x1="569.4" y1="813.9" x2="569.4" y2="854.0" stroke="#d9d9d9" stroke-width="1.2"/>
<rect x="565.7" y="819.9" width="7.4" height="32.1" fill="#000000" stroke="#d9d9d9" stroke-width="1.1"/>
<line x1="581.4" y1="818.4" x2="581.4" y2="854.8" stroke="#d9d9d9" stroke-width="1.2"/>
<rect x="577.7" y="822.6" width="7.4" height="28.4" fill="#ffffff" stroke="#d9d9d9" stroke-width="1.1"/>
<line x1="593.4" y1="800.2" x2="593.4" y2="836.6" stroke="#d9d9d9" stroke-width="1.2"/>
<rect x="589.7" y="818.2" width="7.4" height="16.4" fill="#000000" stroke="#d9d9d9" stroke-width="1.1"/>
<line x1="605.4" y1="779.1" x2="605.4" y2="847.3" stroke="#d9d9d9" stroke-width="1.2"/>
<rect x="601.7" y="802.5" width="7.4" height="25.7" fill="#ffffff" stroke="#d9d9d9" stroke-width="1.1"/>
<line x1="617.4" y1="786.8" x2="617.4" y2="828.9" stroke="#d9d9d9" stroke-width="1.2"/>
<rect x="613.7" y="797.8" width="7.4" height="24.7" fill="#000000" stroke="#d9d9d9" stroke-width="1.1"/>
<line x1="629.4" y1="799.3" x2="629.4" y2="824.6" stroke="#d9d9d9" stroke-width="1.2"/>
<rect x="625.7" y="805.2" width="7.4" height="12.4" fill="#ffffff" stroke="#d9d9d9" stroke-width="1.1"/>
<line x1="641.4" y1="781.1" x2="641.4" y2="808.9" stroke="#d9d9d9" stroke-width="1.2"/>
<rect x="637.7" y="781.5" width="7.4" height="21.7" fill="#ffffff" stroke="#d9d9d9" stroke-width="1.1"/>
<line x1="653.4" y1="782.2" x2="653.4" y2="826.9" stroke="#d9d9d9" stroke-width="1.2"/>
<rect x="649.7" y="794.5" width="7.4" height="27.7" fill="#000000" stroke="#d9d9d9" stroke-width="1.1"/>
<line x1="665.4" y1="783.8" x2="665.4" y2="833.2" stroke="#d9d9d9" stroke-width="1.2"/>
<rect x="661.7" y="800.9" width="7.4" height="18.0" fill="#ffffff" stroke="#d9d9d9" stroke-width="1.1"/>
<line x1="677.4" y1="739.6" x2="677.4" y2="804.5" stroke="#d9d9d9" stroke-width="1.2"/>
<rect x="673.7" y="751.4" width="7.4" height="39.4" fill="#ffffff" stroke="#d9d9d9" stroke-width="1.1"/>
<line x1="689.4" y1="716.4" x2="689.4" y2="779.8" stroke="#d9d9d9" stroke-width="1.2"/>
<rect x="685.7" y="718.7" width="7.4" height="44.1" fill="#000000" stroke="#d9d9d9" stroke-width="1.1"/>
<line x1="701.4" y1="733.1" x2="701.4" y2="775.3" stroke="#d9d9d9" stroke-width="1.2"/>
<rect x="697.7" y="747.1" width="7.4" height="10.0" fill="#ffffff" stroke="#d9d9d9" stroke-width="1.1"/>
<line x1="713.5" y1="731.7" x2="713.5" y2="777.8" stroke="#d9d9d9" stroke-width="1.2"/>
<rect x="709.7" y="742.7" width="7.4" height="24.4" fill="#000000" stroke="#d9d9d9" stroke-width="1.1"/>
<line x1="725.5" y1="758.3" x2="725.5" y2="827.2" stroke="#d9d9d9" stroke-width="1.2"/>
<rect x="721.7" y="787.2" width="7.4" height="26.7" fill="#000000" stroke="#d9d9d9" stroke-width="1.1"/>
<line x1="737.5" y1="788.5" x2="737.5" y2="822.2" stroke="#d9d9d9" stroke-width="1.2"/>
<rect x="733.7" y="808.5" width="7.4" height="6.3" fill="#ffffff" stroke="#d9d9d9" stroke-width="1.1"/>
<line x1="749.5" y1="792.2" x2="749.5" y2="822.6" stroke="#d9d9d9" stroke-width="1.2"/>
<rect x="745.8" y="801.2" width="7.4" height="11.0" fill="#000000" stroke="#d9d9d9" stroke-width="1.1"/>
<line x1="761.5" y1="789.5" x2="761.5" y2="821.6" stroke="#d9d9d9" stroke-width="1.2"/>
<rect x="757.8" y="805.2" width="7.4" height="11.4" fill="#000000" stroke="#d9d9d9" stroke-width="1.1"/>
<line x1="773.5" y1="814.5" x2="773.5" y2="846.9" stroke="#d9d9d9" stroke-width="1.2"/>
<rect x="769.8" y="823.6" width="7.4" height="15.4" fill="#000000" stroke="#d9d9d9" stroke-width="1.1"/>
<line x1="785.5" y1="794.2" x2="785.5" y2="833.9" stroke="#d9d9d9" stroke-width="1.2"/>
<rect x="781.8" y="804.5" width="7.4" height="12.0" fill="#ffffff" stroke="#d9d9d9" stroke-width="1.1"/>
<line x1="797.5" y1="762.6" x2="797.5" y2="804.5" stroke="#d9d9d9" stroke-width="1.2"/>
<rect x="793.8" y="769.8" width="7.4" height="16.4" fill="#ffffff" stroke="#d9d9d9" stroke-width="1.1"/>
<line x1="809.5" y1="752.8" x2="809.5" y2="790.0" stroke="#d9d9d9" stroke-width="1.2"/>
<rect x="805.8" y="763.8" width="7.4" height="15.7" fill="#000000" stroke="#d9d9d9" stroke-width="1.1"/>
<line x1="821.5" y1="754.8" x2="821.5" y2="793.5" stroke="#d9d9d9" stroke-width="1.2"/>
<rect x="817.8" y="767.1" width="7.4" height="20.0" fill="#ffffff" stroke="#d9d9d9" stroke-width="1.1"/>
<line x1="833.5" y1="750.4" x2="833.5" y2="794.5" stroke="#d9d9d9" stroke-width="1.2"/>
<rect x="829.8" y="759.4" width="7.4" height="14.0" fill="#ffffff" stroke="#d9d9d9" stroke-width="1.1"/>
<line x1="845.5" y1="740.9" x2="845.5" y2="771.5" stroke="#d9d9d9" stroke-width="1.2"/>
<rect x="841.8" y="749.8" width="7.4" height="12.0" fill="#000000" stroke="#d9d9d9" stroke-width="1.1"/>
<line x1="857.5" y1="749.9" x2="857.5" y2="775.1" stroke="#d9d9d9" stroke-width="1.2"/>
<rect x="853.8" y="759.1" width="7.4" height="1.0" fill="#ffffff" stroke="#d9d9d9" stroke-width="1.1"/>
<line x1="869.5" y1="731.2" x2="869.5" y2="765.6" stroke="#d9d9d9" stroke-width="1.2"/>
<rect x="865.8" y="738.1" width="7.4" height="23.0" fill="#000000" stroke="#d9d9d9" stroke-width="1.1"/>
<line x1="874.7" y1="56" x2="874.7" y2="900" stroke="#8a94a3" stroke-width="1" stroke-dasharray="5,5"/>
<text x="868.7" y="70.0" font-family="Arial,Helvetica,sans-serif" font-size="11" fill="#8a94a3" text-anchor="end" font-weight="400">heute</text>
<line x1="24" y1="854.8" x2="1300" y2="854.8" stroke="#ff3b3b" stroke-width="1.2" stroke-dasharray="8,5"/>
<text x="32.0" y="868.8" font-family="Arial,Helvetica,sans-serif" font-size="11" fill="#ff3b3b" text-anchor="start" font-weight="400" font-style="italic">hart A: 7.675</text>
<line x1="24" y1="616.8" x2="1300" y2="616.8" stroke="#00c853" stroke-width="1.2" stroke-dasharray="8,5"/>
<text x="32.0" y="630.8" font-family="Arial,Helvetica,sans-serif" font-size="11" fill="#00c853" text-anchor="start" font-weight="400" font-style="italic">hart B: 14.80</text>
<line x1="874.7" y1="690.6" x2="1300" y2="690.6" stroke="#ff4fd8" stroke-width="1" stroke-dasharray="3,4"/>
<line x1="874.7" y1="794.5" x2="1300" y2="794.5" stroke="#ff4fd8" stroke-width="1" stroke-dasharray="3,4"/>
<line x1="1108.6" y1="794.5" x2="1300" y2="794.5" stroke="#ff9f1c" stroke-width="1.4" stroke-dasharray="2,3"/>
<line x1="1108.6" y1="709.0" x2="1300" y2="709.0" stroke="#00c853" stroke-width="1.4" stroke-dasharray="6,3"/>
<line x1="1108.6" y1="690.6" x2="1300" y2="690.6" stroke="#ff9f1c" stroke-width="1.4" stroke-dasharray="2,3"/>
<line x1="1108.6" y1="793.5" x2="1300" y2="793.5" stroke="#ff3b3b" stroke-width="1.4" stroke-dasharray="6,3"/>
<text x="882.7" y="686.6" font-family="Arial,Helvetica,sans-serif" font-size="10.5" fill="#ff4fd8" text-anchor="start" font-weight="400" font-style="italic">Wechsel ▲ $12.59</text>
<text x="882.7" y="699.6" font-family="Arial,Helvetica,sans-serif" font-size="10.5" fill="#ff9f1c" text-anchor="start" font-weight="400" font-style="italic">Stop B $12.59</text>
<text x="882.7" y="712.6" font-family="Arial,Helvetica,sans-serif" font-size="10.5" fill="#00c853" text-anchor="start" font-weight="400" font-style="italic">TP A $12.04</text>
<text x="882.7" y="789.5" font-family="Arial,Helvetica,sans-serif" font-size="10.5" fill="#ff3b3b" text-anchor="start" font-weight="400" font-style="italic">TP B $9.510</text>
<text x="882.7" y="802.5" font-family="Arial,Helvetica,sans-serif" font-size="10.5" fill="#ff4fd8" text-anchor="start" font-weight="400" font-style="italic">Wechsel ▼ $9.480</text>
<text x="882.7" y="815.5" font-family="Arial,Helvetica,sans-serif" font-size="10.5" fill="#ff9f1c" text-anchor="start" font-weight="400" font-style="italic">Stop A $9.480</text>
<path d="M 874.7,761.1 L 992.8,705.2 L 1046.0,699.9 L 1111.0,670.1 L 1164.1,662.9 L 1229.1,622.2" fill="none" stroke="#00c853" stroke-width="3" stroke-linejoin="round" stroke-linecap="round"/>
<rect x="1205.1" y="596.2" width="48" height="20" rx="3" fill="#ffffff"/>
<text x="1229.1" y="610.2" font-family="Arial,Helvetica,sans-serif" font-size="12" fill="#000" text-anchor="middle" font-weight="700">55 %</text>
<path d="M 874.7,761.1 L 943.4,798.2 L 974.3,802.7 L 1012.1,828.1" fill="none" stroke="#ff3b3b" stroke-width="3" stroke-dasharray="9,6" stroke-linejoin="round" stroke-linecap="round"/>
<rect x="988.1" y="802.1" width="48" height="20" rx="3" fill="#ffffff"/>
<text x="1012.1" y="816.1" font-family="Arial,Helvetica,sans-serif" font-size="12" fill="#000" text-anchor="middle" font-weight="700">45 %</text>
<line x1="24" y1="761.1" x2="1300" y2="761.1" stroke="#ffffff" stroke-width="0.8" stroke-dasharray="2,4"/>
<rect x="1306" y="613.2" width="112" height="18" rx="3" fill="#00c853"/>
<text x="1362.0" y="626.2" font-family="Arial,Helvetica,sans-serif" font-size="10.5" fill="#000" text-anchor="middle" font-weight="700">▲ 14.48 – 14.80</text>
<rect x="1306" y="661.1" width="112" height="18" rx="3" fill="#00c853"/>
<text x="1362.0" y="674.1" font-family="Arial,Helvetica,sans-serif" font-size="10.5" fill="#000" text-anchor="middle" font-weight="700">▲ 13.03 – 13.38</text>
<rect x="1306" y="696.2" width="112" height="18" rx="3" fill="#00c853"/>
<text x="1362.0" y="709.2" font-family="Arial,Helvetica,sans-serif" font-size="10.5" fill="#000" text-anchor="middle" font-weight="700">▲ 12.04 – 12.27</text>
<rect x="1306" y="752.1" width="112" height="18" rx="3" fill="#ffffff"/>
<text x="1362.0" y="765.1" font-family="Arial,Helvetica,sans-serif" font-size="10.5" fill="#000" text-anchor="middle" font-weight="700">10.48</text>
<rect x="1306" y="789.2" width="112" height="18" rx="3" fill="#ff3b3b"/>
<text x="1362.0" y="802.2" font-family="Arial,Helvetica,sans-serif" font-size="10.5" fill="#000" text-anchor="middle" font-weight="700">▼ 9.230 – 9.510</text>
<rect x="1306" y="819.1" width="112" height="18" rx="3" fill="#ff3b3b"/>
<text x="1362.0" y="832.1" font-family="Arial,Helvetica,sans-serif" font-size="10.5" fill="#000" text-anchor="middle" font-weight="700">▼ 8.300 – 8.650</text>
<text x="1308.0" y="904.0" font-family="Arial,Helvetica,sans-serif" font-size="12" fill="#8a94a3" text-anchor="start" font-weight="400">6.321</text>
<text x="1308.0" y="693.0" font-family="Arial,Helvetica,sans-serif" font-size="12" fill="#8a94a3" text-anchor="start" font-weight="400">12.64</text>
<text x="1308.0" y="587.5" font-family="Arial,Helvetica,sans-serif" font-size="12" fill="#8a94a3" text-anchor="start" font-weight="400">15.80</text>
<text x="1308.0" y="482.0" font-family="Arial,Helvetica,sans-serif" font-size="12" fill="#8a94a3" text-anchor="start" font-weight="400">18.96</text>
<text x="1308.0" y="376.5" font-family="Arial,Helvetica,sans-serif" font-size="12" fill="#8a94a3" text-anchor="start" font-weight="400">22.12</text>
<text x="1308.0" y="271.0" font-family="Arial,Helvetica,sans-serif" font-size="12" fill="#8a94a3" text-anchor="start" font-weight="400">25.28</text>
<text x="1308.0" y="165.5" font-family="Arial,Helvetica,sans-serif" font-size="12" fill="#8a94a3" text-anchor="start" font-weight="400">28.43</text>
<text x="1308.0" y="60.0" font-family="Arial,Helvetica,sans-serif" font-size="12" fill="#8a94a3" text-anchor="start" font-weight="400">31.59</text>
<text x="24.0" y="970.0" font-family="Arial,Helvetica,sans-serif" font-size="11" fill="#8a94a3" text-anchor="start" font-weight="400">Zeitachse nach rechts verlängert als Zeichenraum für die Pfade — keine Terminaussage.</text>
<text x="24.0" y="990.0" font-family="Arial,Helvetica,sans-serif" font-size="11" fill="#8a94a3" text-anchor="start" font-weight="400">Technische Chartstudie im HKCM-Stil. Keine Anlageberatung. Zonen sind Wahrscheinlichkeitsannahmen, keine Zusagen.</text>
</svg>