<svg xmlns="http://www.w3.org/2000/svg" viewBox="0 0 1420 1010" width="1420" height="1010">
<rect x="0" y="0" width="1420" height="1010" fill="#000000"/>
<text x="24.0" y="30.0" font-family="Arial,Helvetica,sans-serif" font-size="15" fill="#e8e8e8" text-anchor="start" font-weight="700">The Estée Lauder Companies Inc. (EL)  ·  Woche  ·  Kurse in USD  ·  Analyse vom 19.09.2026  ·  Stand 20.09.2026</text>
<line x1="24" y1="900.0" x2="1300" y2="900.0" stroke="#1c1c1c" stroke-width="1"/>
<line x1="24" y1="794.5" x2="1300" y2="794.5" stroke="#1c1c1c" stroke-width="1"/>
<line x1="24" y1="689.0" x2="1300" y2="689.0" stroke="#1c1c1c" stroke-width="1"/>
<line x1="24" y1="583.5" x2="1300" y2="583.5" stroke="#1c1c1c" stroke-width="1"/>
<line x1="24" y1="478.0" x2="1300" y2="478.0" stroke="#1c1c1c" stroke-width="1"/>
<line x1="24" y1="372.5" x2="1300" y2="372.5" stroke="#1c1c1c" stroke-width="1"/>
<line x1="24" y1="267.0" x2="1300" y2="267.0" stroke="#1c1c1c" stroke-width="1"/>
<line x1="24" y1="161.5" x2="1300" y2="161.5" stroke="#1c1c1c" stroke-width="1"/>
<line x1="24" y1="56.0" x2="1300" y2="56.0" stroke="#1c1c1c" stroke-width="1"/>
<line x1="98.9" y1="56" x2="98.9" y2="900" stroke="#161616" stroke-width="1"/>
<text x="98.9" y="918.0" font-family="Arial,Helvetica,sans-serif" font-size="11" fill="#8a94a3" text-anchor="middle" font-weight="400">Jul 25</text>
<line x1="259.0" y1="56" x2="259.0" y2="900" stroke="#161616" stroke-width="1"/>
<text x="259.0" y="918.0" font-family="Arial,Helvetica,sans-serif" font-size="11" fill="#8a94a3" text-anchor="middle" font-weight="400">Oct 25</text>
<line x1="419.2" y1="56" x2="419.2" y2="900" stroke="#161616" stroke-width="1"/>
<text x="419.2" y="918.0" font-family="Arial,Helvetica,sans-serif" font-size="11" fill="#8a94a3" text-anchor="middle" font-weight="400">Jan 26</text>
<line x1="575.8" y1="56" x2="575.8" y2="900" stroke="#161616" stroke-width="1"/>
<text x="575.8" y="918.0" font-family="Arial,Helvetica,sans-serif" font-size="11" fill="#8a94a3" text-anchor="middle" font-weight="400">Apr 26</text>
<line x1="734.2" y1="56" x2="734.2" y2="900" stroke="#161616" stroke-width="1"/>
<text x="734.2" y="918.0" font-family="Arial,Helvetica,sans-serif" font-size="11" fill="#8a94a3" text-anchor="middle" font-weight="400">Jul 26</text>
<line x1="894.4" y1="56" x2="894.4" y2="900" stroke="#161616" stroke-width="1"/>
<text x="894.4" y="918.0" font-family="Arial,Helvetica,sans-serif" font-size="11" fill="#8a94a3" text-anchor="middle" font-weight="400">Oct 26</text>
<line x1="1054.5" y1="56" x2="1054.5" y2="900" stroke="#161616" stroke-width="1"/>
<text x="1054.5" y="918.0" font-family="Arial,Helvetica,sans-serif" font-size="11" fill="#8a94a3" text-anchor="middle" font-weight="400">Jan 27</text>
<line x1="1211.2" y1="56" x2="1211.2" y2="900" stroke="#161616" stroke-width="1"/>
<text x="1211.2" y="918.0" font-family="Arial,Helvetica,sans-serif" font-size="11" fill="#8a94a3" text-anchor="middle" font-weight="400">Apr 27</text>
<rect x="24" y="301.8" width="1276" height="22.4" fill="#00c853" fill-opacity="0.13"/>
<line x1="24" y1="301.8" x2="1300" y2="301.8" stroke="#00c853" stroke-width="1.4"/>
<rect x="24" y="229.2" width="1276" height="18.6" fill="#00c853" fill-opacity="0.13"/>
<line x1="24" y1="229.2" x2="1300" y2="229.2" stroke="#00c853" stroke-width="1.4"/>
<rect x="24" y="202.9" width="1276" height="9.5" fill="#00c853" fill-opacity="0.13"/>
<line x1="24" y1="202.9" x2="1300" y2="202.9" stroke="#00c853" stroke-width="1.4"/>
<rect x="24" y="101.2" width="1276" height="30.2" fill="#00c853" fill-opacity="0.13"/>
<line x1="24" y1="101.2" x2="1300" y2="101.2" stroke="#00c853" stroke-width="1.4"/>
<rect x="24" y="550.3" width="1276" height="19.4" fill="#ff3b3b" fill-opacity="0.13"/>
<line x1="24" y1="550.3" x2="1300" y2="550.3" stroke="#ff3b3b" stroke-width="1.4"/>
<rect x="24" y="626.4" width="1276" height="15.6" fill="#ff3b3b" fill-opacity="0.13"/>
<line x1="24" y1="626.4" x2="1300" y2="626.4" stroke="#ff3b3b" stroke-width="1.4"/>
<rect x="24" y="676.5" width="1276" height="28.5" fill="#ff3b3b" fill-opacity="0.13"/>
<line x1="24" y1="676.5" x2="1300" y2="676.5" stroke="#ff3b3b" stroke-width="1.4"/>
<rect x="24" y="779.4" width="1276" height="8.2" fill="#ff3b3b" fill-opacity="0.06"/>
<line x1="24" y1="779.4" x2="1300" y2="779.4" stroke="#ff3b3b" stroke-width="1.4" stroke-dasharray="4,4"/>
<rect x="24" y="815.2" width="1276" height="39.6" fill="#ff3b3b" fill-opacity="0.06"/>
<line x1="24" y1="815.2" x2="1300" y2="815.2" stroke="#ff3b3b" stroke-width="1.4" stroke-dasharray="4,4"/>
<rect x="24" y="641.9" width="1276" height="79.5" fill="#1b3fa8" fill-opacity="0.55" stroke="#00c853" stroke-width="2"/>
<text x="32.0" y="635.9" font-family="Arial,Helvetica,sans-serif" font-size="13" fill="#00c853" text-anchor="start" font-weight="700" font-style="italic">Long-term Entry: $64.05 – $52.96</text>
<text x="32.0" y="620.9" font-family="Arial,Helvetica,sans-serif" font-size="11" fill="#9ad5ff" text-anchor="start" font-weight="400" font-style="italic">≈ €55.74 – €46.09  (EUR/USD 1.1490)</text>
<line x1="24" y1="754.3" x2="1300" y2="754.3" stroke="#ff3b3b" stroke-width="1.6" stroke-dasharray="10,4"/>
<text x="32.0" y="768.3" font-family="Arial,Helvetica,sans-serif" font-size="11" fill="#ff3b3b" text-anchor="start" font-weight="700" font-style="italic">Marke Box: 48.37</text>
<line x1="29.2" y1="618.9" x2="29.2" y2="652.5" stroke="#d9d9d9" stroke-width="1.2"/>
<rect x="25.5" y="632.6" width="7.5" height="11.9" fill="#000000" stroke="#d9d9d9" stroke-width="1.1"/>
<line x1="41.4" y1="602.9" x2="41.4" y2="638.4" stroke="#d9d9d9" stroke-width="1.2"/>
<rect x="37.6" y="620.3" width="7.5" height="1.0" fill="#000000" stroke="#d9d9d9" stroke-width="1.1"/>
<line x1="53.6" y1="597.2" x2="53.6" y2="636.3" stroke="#d9d9d9" stroke-width="1.2"/>
<rect x="49.8" y="610.3" width="7.5" height="13.0" fill="#ffffff" stroke="#d9d9d9" stroke-width="1.1"/>
<line x1="65.8" y1="585.9" x2="65.8" y2="620.0" stroke="#d9d9d9" stroke-width="1.2"/>
<rect x="62.0" y="606.4" width="7.5" height="12.1" fill="#000000" stroke="#d9d9d9" stroke-width="1.1"/>
<line x1="78.0" y1="560.4" x2="78.0" y2="608.0" stroke="#d9d9d9" stroke-width="1.2"/>
<rect x="74.2" y="562.1" width="7.5" height="4.3" fill="#ffffff" stroke="#d9d9d9" stroke-width="1.1"/>
<line x1="90.2" y1="503.0" x2="90.2" y2="558.9" stroke="#d9d9d9" stroke-width="1.2"/>
<rect x="86.4" y="527.0" width="7.5" height="9.0" fill="#ffffff" stroke="#d9d9d9" stroke-width="1.1"/>
<line x1="102.3" y1="456.9" x2="102.3" y2="533.8" stroke="#d9d9d9" stroke-width="1.2"/>
<rect x="98.6" y="465.1" width="7.5" height="56.8" fill="#ffffff" stroke="#d9d9d9" stroke-width="1.1"/>
<line x1="114.5" y1="436.9" x2="114.5" y2="494.8" stroke="#d9d9d9" stroke-width="1.2"/>
<rect x="110.8" y="448.2" width="7.5" height="37.9" fill="#ffffff" stroke="#d9d9d9" stroke-width="1.1"/>
<line x1="126.7" y1="450.1" x2="126.7" y2="498.3" stroke="#d9d9d9" stroke-width="1.2"/>
<rect x="122.9" y="458.9" width="7.5" height="17.1" fill="#000000" stroke="#d9d9d9" stroke-width="1.1"/>
<line x1="138.9" y1="452.3" x2="138.9" y2="485.8" stroke="#d9d9d9" stroke-width="1.2"/>
<rect x="135.1" y="453.1" width="7.5" height="31.2" fill="#ffffff" stroke="#d9d9d9" stroke-width="1.1"/>
<line x1="151.1" y1="417.9" x2="151.1" y2="467.1" stroke="#d9d9d9" stroke-width="1.2"/>
<rect x="147.3" y="437.9" width="7.5" height="10.6" fill="#000000" stroke="#d9d9d9" stroke-width="1.1"/>
<line x1="163.3" y1="434.1" x2="163.3" y2="459.6" stroke="#d9d9d9" stroke-width="1.2"/>
<rect x="159.5" y="438.0" width="7.5" height="13.0" fill="#000000" stroke="#d9d9d9" stroke-width="1.1"/>
<line x1="175.4" y1="416.7" x2="175.4" y2="469.0" stroke="#d9d9d9" stroke-width="1.2"/>
<rect x="171.7" y="449.0" width="7.5" height="13.1" fill="#ffffff" stroke="#d9d9d9" stroke-width="1.1"/>
<line x1="187.6" y1="439.8" x2="187.6" y2="495.9" stroke="#d9d9d9" stroke-width="1.2"/>
<rect x="183.9" y="447.1" width="7.5" height="3.5" fill="#ffffff" stroke="#d9d9d9" stroke-width="1.1"/>
<line x1="199.8" y1="429.0" x2="199.8" y2="470.5" stroke="#d9d9d9" stroke-width="1.2"/>
<rect x="196.1" y="443.5" width="7.5" height="21.9" fill="#ffffff" stroke="#d9d9d9" stroke-width="1.1"/>
<line x1="212.0" y1="440.1" x2="212.0" y2="478.4" stroke="#d9d9d9" stroke-width="1.2"/>
<rect x="208.2" y="450.3" width="7.5" height="11.4" fill="#000000" stroke="#d9d9d9" stroke-width="1.1"/>
<line x1="224.2" y1="458.6" x2="224.2" y2="502.9" stroke="#d9d9d9" stroke-width="1.2"/>
<rect x="220.4" y="464.2" width="7.5" height="37.3" fill="#000000" stroke="#d9d9d9" stroke-width="1.1"/>
<line x1="236.4" y1="451.6" x2="236.4" y2="491.0" stroke="#d9d9d9" stroke-width="1.2"/>
<rect x="232.6" y="471.7" width="7.5" height="2.9" fill="#ffffff" stroke="#d9d9d9" stroke-width="1.1"/>
<line x1="248.6" y1="462.3" x2="248.6" y2="505.2" stroke="#d9d9d9" stroke-width="1.2"/>
<rect x="244.8" y="475.5" width="7.5" height="4.4" fill="#000000" stroke="#d9d9d9" stroke-width="1.1"/>
<line x1="260.7" y1="456.6" x2="260.7" y2="491.7" stroke="#d9d9d9" stroke-width="1.2"/>
<rect x="257.0" y="462.2" width="7.5" height="8.0" fill="#000000" stroke="#d9d9d9" stroke-width="1.1"/>
<line x1="272.9" y1="409.3" x2="272.9" y2="490.0" stroke="#d9d9d9" stroke-width="1.2"/>
<rect x="269.2" y="465.5" width="7.5" height="7.2" fill="#000000" stroke="#d9d9d9" stroke-width="1.1"/>
<line x1="285.1" y1="378.5" x2="285.1" y2="448.0" stroke="#d9d9d9" stroke-width="1.2"/>
<rect x="281.3" y="378.7" width="7.5" height="57.6" fill="#ffffff" stroke="#d9d9d9" stroke-width="1.1"/>
<line x1="297.3" y1="351.8" x2="297.3" y2="402.0" stroke="#d9d9d9" stroke-width="1.2"/>
<rect x="293.5" y="366.2" width="7.5" height="2.6" fill="#000000" stroke="#d9d9d9" stroke-width="1.1"/>
<line x1="309.5" y1="359.0" x2="309.5" y2="438.8" stroke="#d9d9d9" stroke-width="1.2"/>
<rect x="305.7" y="381.0" width="7.5" height="27.0" fill="#000000" stroke="#d9d9d9" stroke-width="1.1"/>
<line x1="321.7" y1="409.1" x2="321.7" y2="494.6" stroke="#d9d9d9" stroke-width="1.2"/>
<rect x="317.9" y="432.6" width="7.5" height="39.4" fill="#000000" stroke="#d9d9d9" stroke-width="1.1"/>
<line x1="333.9" y1="431.6" x2="333.9" y2="469.9" stroke="#d9d9d9" stroke-width="1.2"/>
<rect x="330.1" y="458.6" width="7.5" height="10.4" fill="#000000" stroke="#d9d9d9" stroke-width="1.1"/>
<line x1="346.0" y1="456.4" x2="346.0" y2="490.4" stroke="#d9d9d9" stroke-width="1.2"/>
<rect x="342.3" y="456.6" width="7.5" height="27.3" fill="#ffffff" stroke="#d9d9d9" stroke-width="1.1"/>
<line x1="358.2" y1="420.2" x2="358.2" y2="458.4" stroke="#d9d9d9" stroke-width="1.2"/>
<rect x="354.5" y="426.8" width="7.5" height="4.9" fill="#ffffff" stroke="#d9d9d9" stroke-width="1.1"/>
<line x1="370.4" y1="342.9" x2="370.4" y2="434.4" stroke="#d9d9d9" stroke-width="1.2"/>
<rect x="366.6" y="347.5" width="7.5" height="74.7" fill="#ffffff" stroke="#d9d9d9" stroke-width="1.1"/>
<line x1="382.6" y1="315.3" x2="382.6" y2="368.8" stroke="#d9d9d9" stroke-width="1.2"/>
<rect x="378.8" y="354.9" width="7.5" height="9.5" fill="#ffffff" stroke="#d9d9d9" stroke-width="1.1"/>
<line x1="394.8" y1="309.9" x2="394.8" y2="383.3" stroke="#d9d9d9" stroke-width="1.2"/>
<rect x="391.0" y="326.9" width="7.5" height="50.0" fill="#ffffff" stroke="#d9d9d9" stroke-width="1.1"/>
<line x1="407.0" y1="316.6" x2="407.0" y2="335.1" stroke="#d9d9d9" stroke-width="1.2"/>
<rect x="403.2" y="322.3" width="7.5" height="7.2" fill="#000000" stroke="#d9d9d9" stroke-width="1.1"/>
<line x1="419.2" y1="323.3" x2="419.2" y2="353.2" stroke="#d9d9d9" stroke-width="1.2"/>
<rect x="415.4" y="335.8" width="7.5" height="1.0" fill="#ffffff" stroke="#d9d9d9" stroke-width="1.1"/>
<line x1="431.3" y1="284.9" x2="431.3" y2="357.4" stroke="#d9d9d9" stroke-width="1.2"/>
<rect x="427.6" y="285.8" width="7.5" height="39.9" fill="#ffffff" stroke="#d9d9d9" stroke-width="1.1"/>
<line x1="443.5" y1="245.0" x2="443.5" y2="300.0" stroke="#d9d9d9" stroke-width="1.2"/>
<rect x="439.8" y="276.4" width="7.5" height="14.5" fill="#ffffff" stroke="#d9d9d9" stroke-width="1.1"/>
<line x1="455.7" y1="239.0" x2="455.7" y2="294.7" stroke="#d9d9d9" stroke-width="1.2"/>
<rect x="451.9" y="257.5" width="7.5" height="23.2" fill="#ffffff" stroke="#d9d9d9" stroke-width="1.1"/>
<line x1="467.9" y1="255.2" x2="467.9" y2="287.2" stroke="#d9d9d9" stroke-width="1.2"/>
<rect x="464.1" y="266.8" width="7.5" height="8.0" fill="#000000" stroke="#d9d9d9" stroke-width="1.1"/>
<line x1="480.1" y1="229.2" x2="480.1" y2="450.1" stroke="#d9d9d9" stroke-width="1.2"/>
<rect x="476.3" y="249.8" width="7.5" height="138.3" fill="#000000" stroke="#d9d9d9" stroke-width="1.1"/>
<line x1="492.3" y1="307.9" x2="492.3" y2="405.5" stroke="#d9d9d9" stroke-width="1.2"/>
<rect x="488.5" y="325.2" width="7.5" height="66.2" fill="#ffffff" stroke="#d9d9d9" stroke-width="1.1"/>
<line x1="504.5" y1="280.3" x2="504.5" y2="325.6" stroke="#d9d9d9" stroke-width="1.2"/>
<rect x="500.7" y="282.3" width="7.5" height="15.0" fill="#ffffff" stroke="#d9d9d9" stroke-width="1.1"/>
<line x1="516.6" y1="258.3" x2="516.6" y2="332.1" stroke="#d9d9d9" stroke-width="1.2"/>
<rect x="512.9" y="290.9" width="7.5" height="25.4" fill="#000000" stroke="#d9d9d9" stroke-width="1.1"/>
<line x1="528.8" y1="334.4" x2="528.8" y2="438.0" stroke="#d9d9d9" stroke-width="1.2"/>
<rect x="525.1" y="382.9" width="7.5" height="53.5" fill="#000000" stroke="#d9d9d9" stroke-width="1.1"/>
<line x1="541.0" y1="410.3" x2="541.0" y2="498.1" stroke="#d9d9d9" stroke-width="1.2"/>
<rect x="537.2" y="437.1" width="7.5" height="34.0" fill="#000000" stroke="#d9d9d9" stroke-width="1.1"/>
<line x1="553.2" y1="441.7" x2="553.2" y2="498.6" stroke="#d9d9d9" stroke-width="1.2"/>
<rect x="549.4" y="464.8" width="7.5" height="20.4" fill="#000000" stroke="#d9d9d9" stroke-width="1.1"/>
<line x1="565.4" y1="448.3" x2="565.4" y2="620.6" stroke="#d9d9d9" stroke-width="1.2"/>
<rect x="561.6" y="532.7" width="7.5" height="86.4" fill="#000000" stroke="#d9d9d9" stroke-width="1.1"/>
<line x1="577.6" y1="571.3" x2="577.6" y2="626.4" stroke="#d9d9d9" stroke-width="1.2"/>
<rect x="573.8" y="605.6" width="7.5" height="8.2" fill="#ffffff" stroke="#d9d9d9" stroke-width="1.1"/>
<line x1="589.8" y1="566.1" x2="589.8" y2="612.4" stroke="#d9d9d9" stroke-width="1.2"/>
<rect x="586.0" y="580.1" width="7.5" height="12.6" fill="#ffffff" stroke="#d9d9d9" stroke-width="1.1"/>
<line x1="601.9" y1="535.6" x2="601.9" y2="586.0" stroke="#d9d9d9" stroke-width="1.2"/>
<rect x="598.2" y="554.8" width="7.5" height="11.8" fill="#ffffff" stroke="#d9d9d9" stroke-width="1.1"/>
<line x1="614.1" y1="538.1" x2="614.1" y2="565.7" stroke="#d9d9d9" stroke-width="1.2"/>
<rect x="610.4" y="543.0" width="7.5" height="1.0" fill="#000000" stroke="#d9d9d9" stroke-width="1.1"/>
<line x1="626.3" y1="481.6" x2="626.3" y2="561.9" stroke="#d9d9d9" stroke-width="1.2"/>
<rect x="622.5" y="532.6" width="7.5" height="14.2" fill="#ffffff" stroke="#d9d9d9" stroke-width="1.1"/>
<line x1="638.5" y1="471.0" x2="638.5" y2="538.1" stroke="#d9d9d9" stroke-width="1.2"/>
<rect x="634.7" y="483.2" width="7.5" height="34.9" fill="#ffffff" stroke="#d9d9d9" stroke-width="1.1"/>
<line x1="650.7" y1="487.5" x2="650.7" y2="530.5" stroke="#d9d9d9" stroke-width="1.2"/>
<rect x="646.9" y="507.9" width="7.5" height="17.7" fill="#000000" stroke="#d9d9d9" stroke-width="1.1"/>
<line x1="662.9" y1="451.8" x2="662.9" y2="561.6" stroke="#d9d9d9" stroke-width="1.2"/>
<rect x="659.1" y="468.0" width="7.5" height="59.6" fill="#ffffff" stroke="#d9d9d9" stroke-width="1.1"/>
<line x1="675.1" y1="439.1" x2="675.1" y2="484.0" stroke="#d9d9d9" stroke-width="1.2"/>
<rect x="671.3" y="463.5" width="7.5" height="16.8" fill="#ffffff" stroke="#d9d9d9" stroke-width="1.1"/>
<line x1="687.2" y1="467.4" x2="687.2" y2="518.1" stroke="#d9d9d9" stroke-width="1.2"/>
<rect x="683.5" y="487.6" width="7.5" height="15.0" fill="#000000" stroke="#d9d9d9" stroke-width="1.1"/>
<line x1="699.4" y1="456.4" x2="699.4" y2="508.2" stroke="#d9d9d9" stroke-width="1.2"/>
<rect x="695.7" y="458.2" width="7.5" height="36.1" fill="#ffffff" stroke="#d9d9d9" stroke-width="1.1"/>
<line x1="711.6" y1="444.9" x2="711.6" y2="510.5" stroke="#d9d9d9" stroke-width="1.2"/>
<rect x="707.8" y="455.9" width="7.5" height="37.2" fill="#000000" stroke="#d9d9d9" stroke-width="1.1"/>
<line x1="723.8" y1="484.7" x2="723.8" y2="532.8" stroke="#d9d9d9" stroke-width="1.2"/>
<rect x="720.0" y="495.1" width="7.5" height="28.6" fill="#000000" stroke="#d9d9d9" stroke-width="1.1"/>
<line x1="736.0" y1="487.3" x2="736.0" y2="550.3" stroke="#d9d9d9" stroke-width="1.2"/>
<rect x="732.2" y="501.0" width="7.5" height="31.1" fill="#ffffff" stroke="#d9d9d9" stroke-width="1.1"/>
<line x1="748.2" y1="475.8" x2="748.2" y2="521.8" stroke="#d9d9d9" stroke-width="1.2"/>
<rect x="744.4" y="492.5" width="7.5" height="16.1" fill="#000000" stroke="#d9d9d9" stroke-width="1.1"/>
<line x1="760.4" y1="492.6" x2="760.4" y2="526.2" stroke="#d9d9d9" stroke-width="1.2"/>
<rect x="756.6" y="512.3" width="7.5" height="7.0" fill="#ffffff" stroke="#d9d9d9" stroke-width="1.1"/>
<line x1="772.5" y1="498.9" x2="772.5" y2="537.2" stroke="#d9d9d9" stroke-width="1.2"/>
<rect x="768.8" y="501.5" width="7.5" height="24.0" fill="#000000" stroke="#d9d9d9" stroke-width="1.1"/>
<line x1="784.7" y1="484.6" x2="784.7" y2="520.4" stroke="#d9d9d9" stroke-width="1.2"/>
<rect x="781.0" y="499.6" width="7.5" height="5.0" fill="#ffffff" stroke="#d9d9d9" stroke-width="1.1"/>
<line x1="796.9" y1="464.0" x2="796.9" y2="503.4" stroke="#d9d9d9" stroke-width="1.2"/>
<rect x="793.1" y="467.8" width="7.5" height="26.3" fill="#ffffff" stroke="#d9d9d9" stroke-width="1.1"/>
<line x1="809.1" y1="465.1" x2="809.1" y2="484.9" stroke="#d9d9d9" stroke-width="1.2"/>
<rect x="805.3" y="476.1" width="7.5" height="7.8" fill="#000000" stroke="#d9d9d9" stroke-width="1.1"/>
<line x1="821.3" y1="370.3" x2="821.3" y2="500.0" stroke="#d9d9d9" stroke-width="1.2"/>
<rect x="817.5" y="370.3" width="7.5" height="126.1" fill="#ffffff" stroke="#d9d9d9" stroke-width="1.1"/>
<line x1="833.5" y1="324.2" x2="833.5" y2="375.5" stroke="#d9d9d9" stroke-width="1.2"/>
<rect x="829.7" y="354.7" width="7.5" height="5.3" fill="#000000" stroke="#d9d9d9" stroke-width="1.1"/>
<line x1="845.7" y1="354.3" x2="845.7" y2="393.2" stroke="#d9d9d9" stroke-width="1.2"/>
<rect x="841.9" y="356.6" width="7.5" height="11.2" fill="#ffffff" stroke="#d9d9d9" stroke-width="1.1"/>
<line x1="857.8" y1="350.3" x2="857.8" y2="413.5" stroke="#d9d9d9" stroke-width="1.2"/>
<rect x="854.1" y="372.1" width="7.5" height="32.8" fill="#000000" stroke="#d9d9d9" stroke-width="1.1"/>
<line x1="870.0" y1="390.7" x2="870.0" y2="434.4" stroke="#d9d9d9" stroke-width="1.2"/>
<rect x="866.3" y="397.0" width="7.5" height="34.3" fill="#000000" stroke="#d9d9d9" stroke-width="1.1"/>
<line x1="875.2" y1="56" x2="875.2" y2="900" stroke="#8a94a3" stroke-width="1" stroke-dasharray="5,5"/>
<text x="869.2" y="70.0" font-family="Arial,Helvetica,sans-serif" font-size="11" fill="#8a94a3" text-anchor="end" font-weight="400">heute</text>
<line x1="24" y1="626.4" x2="1300" y2="626.4" stroke="#ff3b3b" stroke-width="1.2" stroke-dasharray="8,5"/>
<text x="32.0" y="640.4" font-family="Arial,Helvetica,sans-serif" font-size="11" fill="#ff3b3b" text-anchor="start" font-weight="400" font-style="italic">hart A: 66.22</text>
<line x1="24" y1="229.2" x2="1300" y2="229.2" stroke="#00c853" stroke-width="1.2" stroke-dasharray="8,5"/>
<text x="32.0" y="243.2" font-family="Arial,Helvetica,sans-serif" font-size="11" fill="#00c853" text-anchor="start" font-weight="400" font-style="italic">hart B: 121.6</text>
<line x1="875.2" y1="324.2" x2="1300" y2="324.2" stroke="#ff4fd8" stroke-width="1" stroke-dasharray="3,4"/>
<line x1="875.2" y1="550.3" x2="1300" y2="550.3" stroke="#ff4fd8" stroke-width="1" stroke-dasharray="3,4"/>
<line x1="1108.9" y1="754.3" x2="1300" y2="754.3" stroke="#ff9f1c" stroke-width="1.4" stroke-dasharray="2,3"/>
<line x1="1108.9" y1="324.2" x2="1300" y2="324.2" stroke="#00c853" stroke-width="1.4" stroke-dasharray="6,3"/>
<line x1="1108.9" y1="550.3" x2="1300" y2="550.3" stroke="#ff9f1c" stroke-width="1.4" stroke-dasharray="2,3"/>
<line x1="1108.9" y1="324.2" x2="1300" y2="324.2" stroke="#00c853" stroke-width="1.4" stroke-dasharray="6,3"/>
<line x1="1108.9" y1="350.3" x2="1300" y2="350.3" stroke="#ff9f1c" stroke-width="1.4" stroke-dasharray="2,3"/>
<line x1="1108.9" y1="550.3" x2="1300" y2="550.3" stroke="#ff3b3b" stroke-width="1.4" stroke-dasharray="6,3"/>
<text x="883.2" y="320.2" font-family="Arial,Helvetica,sans-serif" font-size="10.5" fill="#ff4fd8" text-anchor="start" font-weight="400" font-style="italic">Wechsel ▲ $108.4</text>
<text x="883.2" y="333.2" font-family="Arial,Helvetica,sans-serif" font-size="10.5" fill="#00c853" text-anchor="start" font-weight="400" font-style="italic">Ziel Box $108.4</text>
<text x="883.2" y="346.2" font-family="Arial,Helvetica,sans-serif" font-size="10.5" fill="#00c853" text-anchor="start" font-weight="400" font-style="italic">TP A $108.4</text>
<text x="883.2" y="359.2" font-family="Arial,Helvetica,sans-serif" font-size="10.5" fill="#ff9f1c" text-anchor="start" font-weight="400" font-style="italic">Stop B $104.7</text>
<text x="883.2" y="546.3" font-family="Arial,Helvetica,sans-serif" font-size="10.5" fill="#ff4fd8" text-anchor="start" font-weight="400" font-style="italic">Wechsel ▼ $76.83</text>
<text x="883.2" y="559.3" font-family="Arial,Helvetica,sans-serif" font-size="10.5" fill="#ff9f1c" text-anchor="start" font-weight="400" font-style="italic">Stop A $76.83</text>
<text x="883.2" y="572.3" font-family="Arial,Helvetica,sans-serif" font-size="10.5" fill="#ff3b3b" text-anchor="start" font-weight="400" font-style="italic">TP B $76.83</text>
<text x="883.2" y="750.3" font-family="Arial,Helvetica,sans-serif" font-size="10.5" fill="#ff9f1c" text-anchor="start" font-weight="400" font-style="italic">Stop Box $48.37</text>
<path d="M 875.2,431.3 L 967.6,313.0 L 1009.1,301.8 L 1059.9,238.4 L 1101.5,233.8 L 1152.3,207.7 L 1193.8,194.0 L 1244.6,116.3" fill="none" stroke="#00c853" stroke-width="3" stroke-dasharray="9,6" stroke-linejoin="round" stroke-linecap="round"/>
<rect x="1220.6" y="90.3" width="48" height="20" rx="3" fill="#ffffff"/>
<text x="1244.6" y="104.3" font-family="Arial,Helvetica,sans-serif" font-size="12" fill="#000" text-anchor="middle" font-weight="700">45 %</text>
<path d="M 875.2,431.3 L 924.8,560.0 L 947.1,571.1 L 974.4,634.1 L 996.7,642.6 L 1023.9,690.8" fill="none" stroke="#ff3b3b" stroke-width="3" stroke-linejoin="round" stroke-linecap="round"/>
<rect x="999.9" y="664.8" width="48" height="20" rx="3" fill="#ffffff"/>
<text x="1023.9" y="678.8" font-family="Arial,Helvetica,sans-serif" font-size="12" fill="#000" text-anchor="middle" font-weight="700">55 %</text>
<path d="M 1023.9,690.8 L 1086.3,783.5 L 1119.0,835.0" fill="none" stroke="#ff3b3b" stroke-width="1.2" stroke-dasharray="2,5" stroke-opacity="0.7" stroke-linejoin="round" stroke-linecap="round"/>
<text x="1119.0" y="851.0" font-family="Arial,Helvetica,sans-serif" font-size="10" fill="#ff3b3b" text-anchor="middle" font-weight="400" font-style="italic">nur bei Bruch der Marke</text>
<path d="M 1023.9,690.8 L 1129.4,313.0 L 1150.0,301.8 L 1175.1,238.4 L 1195.7,233.8 L 1220.8,207.7 L 1241.4,194.0 L 1266.6,116.3" fill="none" stroke="#00c853" stroke-width="2.2" stroke-dasharray="7,5" stroke-opacity="0.9" stroke-linejoin="round" stroke-linecap="round"/>
<text x="1082.6" y="501.9" font-family="Arial,Helvetica,sans-serif" font-size="10.5" fill="#00c853" text-anchor="start" font-weight="700" font-style="italic">danach ▲</text>
<line x1="24" y1="431.3" x2="1300" y2="431.3" stroke="#ffffff" stroke-width="0.8" stroke-dasharray="2,4"/>
<rect x="1306" y="107.3" width="112" height="18" rx="3" fill="#00c853"/>
<text x="1362.0" y="120.3" font-family="Arial,Helvetica,sans-serif" font-size="10.5" fill="#000" text-anchor="middle" font-weight="700">▲ 135.3 – 139.5</text>
<rect x="1306" y="198.7" width="112" height="18" rx="3" fill="#00c853"/>
<text x="1362.0" y="211.7" font-family="Arial,Helvetica,sans-serif" font-size="10.5" fill="#000" text-anchor="middle" font-weight="700">▲ 124.0 – 125.3</text>
<rect x="1306" y="229.4" width="112" height="18" rx="3" fill="#00c853"/>
<text x="1362.0" y="242.4" font-family="Arial,Helvetica,sans-serif" font-size="10.5" fill="#000" text-anchor="middle" font-weight="700">▲ 119.0 – 121.6</text>
<rect x="1306" y="304.0" width="112" height="18" rx="3" fill="#00c853"/>
<text x="1362.0" y="317.0" font-family="Arial,Helvetica,sans-serif" font-size="10.5" fill="#000" text-anchor="middle" font-weight="700">▲ 108.4 – 111.5</text>
<rect x="1306" y="422.3" width="112" height="18" rx="3" fill="#ffffff"/>
<text x="1362.0" y="435.3" font-family="Arial,Helvetica,sans-serif" font-size="10.5" fill="#000" text-anchor="middle" font-weight="700">93.43</text>
<rect x="1306" y="551.0" width="112" height="18" rx="3" fill="#ff3b3b"/>
<text x="1362.0" y="564.0" font-family="Arial,Helvetica,sans-serif" font-size="10.5" fill="#000" text-anchor="middle" font-weight="700">▼ 74.13 – 76.83</text>
<rect x="1306" y="625.1" width="112" height="18" rx="3" fill="#ff3b3b"/>
<text x="1362.0" y="638.1" font-family="Arial,Helvetica,sans-serif" font-size="10.5" fill="#000" text-anchor="middle" font-weight="700">▼ 64.05 – 66.22</text>
<rect x="1306" y="681.8" width="112" height="18" rx="3" fill="#ff3b3b"/>
<text x="1362.0" y="694.8" font-family="Arial,Helvetica,sans-serif" font-size="10.5" fill="#000" text-anchor="middle" font-weight="700">▼ 55.25 – 59.22</text>
<rect x="1306" y="774.5" width="112" height="18" rx="3" fill="#7a2424"/>
<text x="1362.0" y="787.5" font-family="Arial,Helvetica,sans-serif" font-size="10.5" fill="#fff" text-anchor="middle" font-weight="700">▼ 43.73 – 44.87</text>
<rect x="1306" y="826.0" width="112" height="18" rx="3" fill="#7a2424"/>
<text x="1362.0" y="839.0" font-family="Arial,Helvetica,sans-serif" font-size="10.5" fill="#fff" text-anchor="middle" font-weight="700">▼ 34.35 – 39.88</text>
<text x="1308.0" y="904.0" font-family="Arial,Helvetica,sans-serif" font-size="12" fill="#8a94a3" text-anchor="start" font-weight="400">28.04</text>
<text x="1308.0" y="587.5" font-family="Arial,Helvetica,sans-serif" font-size="12" fill="#8a94a3" text-anchor="start" font-weight="400">72.20</text>
<text x="1308.0" y="482.0" font-family="Arial,Helvetica,sans-serif" font-size="12" fill="#8a94a3" text-anchor="start" font-weight="400">86.92</text>
<text x="1308.0" y="376.5" font-family="Arial,Helvetica,sans-serif" font-size="12" fill="#8a94a3" text-anchor="start" font-weight="400">101.6</text>
<text x="1308.0" y="271.0" font-family="Arial,Helvetica,sans-serif" font-size="12" fill="#8a94a3" text-anchor="start" font-weight="400">116.4</text>
<text x="1308.0" y="165.5" font-family="Arial,Helvetica,sans-serif" font-size="12" fill="#8a94a3" text-anchor="start" font-weight="400">131.1</text>
<text x="1308.0" y="60.0" font-family="Arial,Helvetica,sans-serif" font-size="12" fill="#8a94a3" text-anchor="start" font-weight="400">145.8</text>
<text x="24.0" y="970.0" font-family="Arial,Helvetica,sans-serif" font-size="11" fill="#8a94a3" text-anchor="start" font-weight="400">Zeitachse nach rechts verlängert als Zeichenraum für die Pfade — keine Terminaussage.  Gedämpfte rote Zonen: nur bei Wochenschluss unter der Marke erreichbar — dann gilt die Box nicht mehr.</text>
<text x="24.0" y="990.0" font-family="Arial,Helvetica,sans-serif" font-size="11" fill="#8a94a3" text-anchor="start" font-weight="400">Technische Chartstudie im HKCM-Stil. Keine Anlageberatung. Zonen sind Wahrscheinlichkeitsannahmen, keine Zusagen.</text>
</svg>