<svg xmlns="http://www.w3.org/2000/svg" viewBox="0 0 1420 1010" width="1420" height="1010">
<rect x="0" y="0" width="1420" height="1010" fill="#000000"/>
<text x="24.0" y="30.0" font-family="Arial,Helvetica,sans-serif" font-size="15" fill="#e8e8e8" text-anchor="start" font-weight="700">D-Wave Quantum Inc. (QBTS)  ·  Woche  ·  Kurse in USD  ·  Analyse vom 18.09.2026  ·  Stand 20.09.2026</text>
<line x1="24" y1="900.0" x2="1300" y2="900.0" stroke="#1c1c1c" stroke-width="1"/>
<line x1="24" y1="794.5" x2="1300" y2="794.5" stroke="#1c1c1c" stroke-width="1"/>
<line x1="24" y1="689.0" x2="1300" y2="689.0" stroke="#1c1c1c" stroke-width="1"/>
<line x1="24" y1="583.5" x2="1300" y2="583.5" stroke="#1c1c1c" stroke-width="1"/>
<line x1="24" y1="478.0" x2="1300" y2="478.0" stroke="#1c1c1c" stroke-width="1"/>
<line x1="24" y1="372.5" x2="1300" y2="372.5" stroke="#1c1c1c" stroke-width="1"/>
<line x1="24" y1="267.0" x2="1300" y2="267.0" stroke="#1c1c1c" stroke-width="1"/>
<line x1="24" y1="161.5" x2="1300" y2="161.5" stroke="#1c1c1c" stroke-width="1"/>
<line x1="24" y1="56.0" x2="1300" y2="56.0" stroke="#1c1c1c" stroke-width="1"/>
<line x1="109.8" y1="56" x2="109.8" y2="900" stroke="#161616" stroke-width="1"/>
<text x="109.8" y="918.0" font-family="Arial,Helvetica,sans-serif" font-size="11" fill="#8a94a3" text-anchor="middle" font-weight="400">Jul 25</text>
<line x1="267.5" y1="56" x2="267.5" y2="900" stroke="#161616" stroke-width="1"/>
<text x="267.5" y="918.0" font-family="Arial,Helvetica,sans-serif" font-size="11" fill="#8a94a3" text-anchor="middle" font-weight="400">Oct 25</text>
<line x1="425.3" y1="56" x2="425.3" y2="900" stroke="#161616" stroke-width="1"/>
<text x="425.3" y="918.0" font-family="Arial,Helvetica,sans-serif" font-size="11" fill="#8a94a3" text-anchor="middle" font-weight="400">Jan 26</text>
<line x1="579.7" y1="56" x2="579.7" y2="900" stroke="#161616" stroke-width="1"/>
<text x="579.7" y="918.0" font-family="Arial,Helvetica,sans-serif" font-size="11" fill="#8a94a3" text-anchor="middle" font-weight="400">Apr 26</text>
<line x1="735.7" y1="56" x2="735.7" y2="900" stroke="#161616" stroke-width="1"/>
<text x="735.7" y="918.0" font-family="Arial,Helvetica,sans-serif" font-size="11" fill="#8a94a3" text-anchor="middle" font-weight="400">Jul 26</text>
<line x1="893.5" y1="56" x2="893.5" y2="900" stroke="#161616" stroke-width="1"/>
<text x="893.5" y="918.0" font-family="Arial,Helvetica,sans-serif" font-size="11" fill="#8a94a3" text-anchor="middle" font-weight="400">Oct 26</text>
<line x1="1051.3" y1="56" x2="1051.3" y2="900" stroke="#161616" stroke-width="1"/>
<text x="1051.3" y="918.0" font-family="Arial,Helvetica,sans-serif" font-size="11" fill="#8a94a3" text-anchor="middle" font-weight="400">Jan 27</text>
<line x1="1205.7" y1="56" x2="1205.7" y2="900" stroke="#161616" stroke-width="1"/>
<text x="1205.7" y="918.0" font-family="Arial,Helvetica,sans-serif" font-size="11" fill="#8a94a3" text-anchor="middle" font-weight="400">Apr 27</text>
<rect x="24" y="476.0" width="1276" height="15.3" fill="#00c853" fill-opacity="0.13"/>
<line x1="24" y1="476.0" x2="1300" y2="476.0" stroke="#00c853" stroke-width="1.4"/>
<rect x="24" y="363.4" width="1276" height="17.3" fill="#00c853" fill-opacity="0.13"/>
<line x1="24" y1="363.4" x2="1300" y2="363.4" stroke="#00c853" stroke-width="1.4"/>
<rect x="24" y="101.2" width="1276" height="9.6" fill="#00c853" fill-opacity="0.13"/>
<line x1="24" y1="101.2" x2="1300" y2="101.2" stroke="#00c853" stroke-width="1.4"/>
<rect x="24" y="687.4" width="1276" height="13.6" fill="#ff3b3b" fill-opacity="0.13"/>
<line x1="24" y1="687.4" x2="1300" y2="687.4" stroke="#ff3b3b" stroke-width="1.4"/>
<rect x="24" y="722.2" width="1276" height="10.5" fill="#ff3b3b" fill-opacity="0.13"/>
<line x1="24" y1="722.2" x2="1300" y2="722.2" stroke="#ff3b3b" stroke-width="1.4"/>
<rect x="24" y="751.1" width="1276" height="16.0" fill="#ff3b3b" fill-opacity="0.13"/>
<line x1="24" y1="751.1" x2="1300" y2="751.1" stroke="#ff3b3b" stroke-width="1.4"/>
<rect x="24" y="796.3" width="1276" height="6.4" fill="#ff3b3b" fill-opacity="0.13"/>
<line x1="24" y1="796.3" x2="1300" y2="796.3" stroke="#ff3b3b" stroke-width="1.4"/>
<rect x="24" y="722.2" width="1276" height="80.5" fill="#1b3fa8" fill-opacity="0.55" stroke="#00c853" stroke-width="2"/>
<text x="32.0" y="716.2" font-family="Arial,Helvetica,sans-serif" font-size="13" fill="#00c853" text-anchor="start" font-weight="700" font-style="italic">Long-term Entry: $12.98 – $8.600</text>
<text x="32.0" y="701.2" font-family="Arial,Helvetica,sans-serif" font-size="11" fill="#9ad5ff" text-anchor="start" font-weight="400" font-style="italic">≈ €11.30 – €7.485  (EUR/USD 1.1490)</text>
<line x1="24" y1="854.8" x2="1300" y2="854.8" stroke="#ff3b3b" stroke-width="1.6" stroke-dasharray="10,4"/>
<text x="32.0" y="868.8" font-family="Arial,Helvetica,sans-serif" font-size="11" fill="#ff3b3b" text-anchor="start" font-weight="700" font-style="italic">Marke Box: 5.770</text>
<line x1="29.1" y1="728.1" x2="29.1" y2="752.7" stroke="#d9d9d9" stroke-width="1.2"/>
<rect x="25.4" y="735.6" width="7.4" height="1.0" fill="#ffffff" stroke="#d9d9d9" stroke-width="1.1"/>
<line x1="41.2" y1="597.4" x2="41.2" y2="742.2" stroke="#d9d9d9" stroke-width="1.2"/>
<rect x="37.4" y="615.2" width="7.4" height="103.9" fill="#ffffff" stroke="#d9d9d9" stroke-width="1.1"/>
<line x1="53.2" y1="603.6" x2="53.2" y2="676.4" stroke="#d9d9d9" stroke-width="1.2"/>
<rect x="49.4" y="638.2" width="7.4" height="22.4" fill="#000000" stroke="#d9d9d9" stroke-width="1.1"/>
<line x1="65.2" y1="615.4" x2="65.2" y2="682.3" stroke="#d9d9d9" stroke-width="1.2"/>
<rect x="61.4" y="618.5" width="7.4" height="27.8" fill="#ffffff" stroke="#d9d9d9" stroke-width="1.1"/>
<line x1="77.2" y1="612.4" x2="77.2" y2="688.0" stroke="#d9d9d9" stroke-width="1.2"/>
<rect x="73.5" y="630.8" width="7.4" height="51.1" fill="#000000" stroke="#d9d9d9" stroke-width="1.1"/>
<line x1="89.2" y1="652.1" x2="89.2" y2="684.7" stroke="#d9d9d9" stroke-width="1.2"/>
<rect x="85.5" y="666.7" width="7.4" height="6.4" fill="#000000" stroke="#d9d9d9" stroke-width="1.1"/>
<line x1="101.2" y1="677.0" x2="101.2" y2="711.4" stroke="#d9d9d9" stroke-width="1.2"/>
<rect x="97.5" y="686.2" width="7.4" height="16.9" fill="#000000" stroke="#d9d9d9" stroke-width="1.1"/>
<line x1="113.2" y1="651.4" x2="113.2" y2="706.6" stroke="#d9d9d9" stroke-width="1.2"/>
<rect x="109.5" y="652.1" width="7.4" height="39.5" fill="#ffffff" stroke="#d9d9d9" stroke-width="1.1"/>
<line x1="125.2" y1="638.3" x2="125.2" y2="689.5" stroke="#d9d9d9" stroke-width="1.2"/>
<rect x="121.5" y="652.7" width="7.4" height="35.9" fill="#000000" stroke="#d9d9d9" stroke-width="1.1"/>
<line x1="137.2" y1="601.8" x2="137.2" y2="687.1" stroke="#d9d9d9" stroke-width="1.2"/>
<rect x="133.5" y="613.5" width="7.4" height="56.3" fill="#ffffff" stroke="#d9d9d9" stroke-width="1.1"/>
<line x1="149.2" y1="582.8" x2="149.2" y2="652.3" stroke="#d9d9d9" stroke-width="1.2"/>
<rect x="145.5" y="613.9" width="7.4" height="8.8" fill="#ffffff" stroke="#d9d9d9" stroke-width="1.1"/>
<line x1="161.2" y1="603.4" x2="161.2" y2="664.6" stroke="#d9d9d9" stroke-width="1.2"/>
<rect x="157.5" y="623.5" width="7.4" height="36.2" fill="#000000" stroke="#d9d9d9" stroke-width="1.1"/>
<line x1="173.2" y1="608.4" x2="173.2" y2="660.2" stroke="#d9d9d9" stroke-width="1.2"/>
<rect x="169.5" y="645.0" width="7.4" height="5.1" fill="#000000" stroke="#d9d9d9" stroke-width="1.1"/>
<line x1="185.2" y1="609.9" x2="185.2" y2="657.1" stroke="#d9d9d9" stroke-width="1.2"/>
<rect x="181.5" y="641.5" width="7.4" height="6.6" fill="#000000" stroke="#d9d9d9" stroke-width="1.1"/>
<line x1="197.2" y1="647.0" x2="197.2" y2="699.8" stroke="#d9d9d9" stroke-width="1.2"/>
<rect x="193.5" y="656.4" width="7.4" height="18.8" fill="#000000" stroke="#d9d9d9" stroke-width="1.1"/>
<line x1="209.2" y1="661.3" x2="209.2" y2="689.5" stroke="#d9d9d9" stroke-width="1.2"/>
<rect x="205.5" y="673.7" width="7.4" height="11.0" fill="#ffffff" stroke="#d9d9d9" stroke-width="1.1"/>
<line x1="221.2" y1="664.5" x2="221.2" y2="689.1" stroke="#d9d9d9" stroke-width="1.2"/>
<rect x="217.5" y="669.4" width="7.4" height="8.8" fill="#000000" stroke="#d9d9d9" stroke-width="1.1"/>
<line x1="233.2" y1="630.3" x2="233.2" y2="680.8" stroke="#d9d9d9" stroke-width="1.2"/>
<rect x="229.5" y="634.3" width="7.4" height="43.0" fill="#ffffff" stroke="#d9d9d9" stroke-width="1.1"/>
<line x1="245.2" y1="458.3" x2="245.2" y2="643.5" stroke="#d9d9d9" stroke-width="1.2"/>
<rect x="241.5" y="466.6" width="7.4" height="157.4" fill="#ffffff" stroke="#d9d9d9" stroke-width="1.1"/>
<line x1="257.2" y1="424.3" x2="257.2" y2="540.9" stroke="#d9d9d9" stroke-width="1.2"/>
<rect x="253.5" y="468.8" width="7.4" height="20.0" fill="#ffffff" stroke="#d9d9d9" stroke-width="1.1"/>
<line x1="269.3" y1="348.9" x2="269.3" y2="525.6" stroke="#d9d9d9" stroke-width="1.2"/>
<rect x="265.5" y="359.6" width="7.4" height="135.9" fill="#ffffff" stroke="#d9d9d9" stroke-width="1.1"/>
<line x1="281.3" y1="233.6" x2="281.3" y2="375.2" stroke="#d9d9d9" stroke-width="1.2"/>
<rect x="277.5" y="316.9" width="7.4" height="36.8" fill="#000000" stroke="#d9d9d9" stroke-width="1.1"/>
<line x1="293.3" y1="101.2" x2="293.3" y2="361.0" stroke="#d9d9d9" stroke-width="1.2"/>
<rect x="289.5" y="213.9" width="7.4" height="42.1" fill="#000000" stroke="#d9d9d9" stroke-width="1.1"/>
<line x1="305.3" y1="231.2" x2="305.3" y2="476.0" stroke="#d9d9d9" stroke-width="1.2"/>
<rect x="301.6" y="328.3" width="7.4" height="32.2" fill="#000000" stroke="#d9d9d9" stroke-width="1.1"/>
<line x1="317.3" y1="272.5" x2="317.3" y2="375.2" stroke="#d9d9d9" stroke-width="1.2"/>
<rect x="313.6" y="279.4" width="7.4" height="37.1" fill="#ffffff" stroke="#d9d9d9" stroke-width="1.1"/>
<line x1="329.3" y1="269.1" x2="329.3" y2="475.1" stroke="#d9d9d9" stroke-width="1.2"/>
<rect x="325.6" y="352.4" width="7.4" height="66.0" fill="#000000" stroke="#d9d9d9" stroke-width="1.1"/>
<line x1="341.3" y1="379.8" x2="341.3" y2="566.1" stroke="#d9d9d9" stroke-width="1.2"/>
<rect x="337.6" y="420.8" width="7.4" height="105.9" fill="#000000" stroke="#d9d9d9" stroke-width="1.1"/>
<line x1="353.3" y1="506.9" x2="353.3" y2="619.9" stroke="#d9d9d9" stroke-width="1.2"/>
<rect x="349.6" y="541.1" width="7.4" height="44.5" fill="#000000" stroke="#d9d9d9" stroke-width="1.1"/>
<line x1="365.3" y1="531.7" x2="365.3" y2="584.8" stroke="#d9d9d9" stroke-width="1.2"/>
<rect x="361.6" y="535.9" width="7.4" height="8.1" fill="#000000" stroke="#d9d9d9" stroke-width="1.1"/>
<line x1="377.3" y1="429.5" x2="377.3" y2="568.8" stroke="#d9d9d9" stroke-width="1.2"/>
<rect x="373.6" y="464.4" width="7.4" height="102.6" fill="#ffffff" stroke="#d9d9d9" stroke-width="1.1"/>
<line x1="389.3" y1="424.9" x2="389.3" y2="497.1" stroke="#d9d9d9" stroke-width="1.2"/>
<rect x="385.6" y="437.9" width="7.4" height="43.0" fill="#000000" stroke="#d9d9d9" stroke-width="1.1"/>
<line x1="401.3" y1="459.1" x2="401.3" y2="527.5" stroke="#d9d9d9" stroke-width="1.2"/>
<rect x="397.6" y="467.7" width="7.4" height="56.6" fill="#ffffff" stroke="#d9d9d9" stroke-width="1.1"/>
<line x1="413.3" y1="365.3" x2="413.3" y2="505.5" stroke="#d9d9d9" stroke-width="1.2"/>
<rect x="409.6" y="369.0" width="7.4" height="126.9" fill="#000000" stroke="#d9d9d9" stroke-width="1.1"/>
<line x1="425.3" y1="439.6" x2="425.3" y2="499.9" stroke="#d9d9d9" stroke-width="1.2"/>
<rect x="421.6" y="443.6" width="7.4" height="36.4" fill="#ffffff" stroke="#d9d9d9" stroke-width="1.1"/>
<line x1="437.3" y1="369.6" x2="437.3" y2="451.2" stroke="#d9d9d9" stroke-width="1.2"/>
<rect x="433.6" y="397.5" width="7.4" height="46.5" fill="#000000" stroke="#d9d9d9" stroke-width="1.1"/>
<line x1="449.3" y1="384.2" x2="449.3" y2="455.0" stroke="#d9d9d9" stroke-width="1.2"/>
<rect x="445.6" y="430.7" width="7.4" height="1.0" fill="#ffffff" stroke="#d9d9d9" stroke-width="1.1"/>
<line x1="461.3" y1="437.2" x2="461.3" y2="505.9" stroke="#d9d9d9" stroke-width="1.2"/>
<rect x="457.6" y="463.7" width="7.4" height="25.9" fill="#000000" stroke="#d9d9d9" stroke-width="1.1"/>
<line x1="473.3" y1="482.2" x2="473.3" y2="580.2" stroke="#d9d9d9" stroke-width="1.2"/>
<rect x="469.6" y="524.2" width="7.4" height="46.5" fill="#000000" stroke="#d9d9d9" stroke-width="1.1"/>
<line x1="485.3" y1="564.2" x2="485.3" y2="649.8" stroke="#d9d9d9" stroke-width="1.2"/>
<rect x="481.6" y="575.3" width="7.4" height="4.6" fill="#000000" stroke="#d9d9d9" stroke-width="1.1"/>
<line x1="497.4" y1="565.2" x2="497.4" y2="621.6" stroke="#d9d9d9" stroke-width="1.2"/>
<rect x="493.6" y="570.9" width="7.4" height="28.3" fill="#000000" stroke="#d9d9d9" stroke-width="1.1"/>
<line x1="509.4" y1="600.1" x2="509.4" y2="633.4" stroke="#d9d9d9" stroke-width="1.2"/>
<rect x="505.6" y="621.8" width="7.4" height="7.0" fill="#000000" stroke="#d9d9d9" stroke-width="1.1"/>
<line x1="521.4" y1="561.9" x2="521.4" y2="640.7" stroke="#d9d9d9" stroke-width="1.2"/>
<rect x="517.7" y="615.5" width="7.4" height="13.4" fill="#ffffff" stroke="#d9d9d9" stroke-width="1.1"/>
<line x1="533.4" y1="600.3" x2="533.4" y2="643.5" stroke="#d9d9d9" stroke-width="1.2"/>
<rect x="529.7" y="612.6" width="7.4" height="6.4" fill="#000000" stroke="#d9d9d9" stroke-width="1.1"/>
<line x1="545.4" y1="601.9" x2="545.4" y2="640.4" stroke="#d9d9d9" stroke-width="1.2"/>
<rect x="541.7" y="610.8" width="7.4" height="27.4" fill="#000000" stroke="#d9d9d9" stroke-width="1.1"/>
<line x1="557.4" y1="622.2" x2="557.4" y2="681.0" stroke="#d9d9d9" stroke-width="1.2"/>
<rect x="553.7" y="639.8" width="7.4" height="31.8" fill="#000000" stroke="#d9d9d9" stroke-width="1.1"/>
<line x1="569.4" y1="653.3" x2="569.4" y2="708.9" stroke="#d9d9d9" stroke-width="1.2"/>
<rect x="565.7" y="661.0" width="7.4" height="44.3" fill="#000000" stroke="#d9d9d9" stroke-width="1.1"/>
<line x1="581.4" y1="685.2" x2="581.4" y2="726.4" stroke="#d9d9d9" stroke-width="1.2"/>
<rect x="577.7" y="697.6" width="7.4" height="24.6" fill="#ffffff" stroke="#d9d9d9" stroke-width="1.1"/>
<line x1="593.4" y1="678.6" x2="593.4" y2="714.8" stroke="#d9d9d9" stroke-width="1.2"/>
<rect x="589.7" y="698.8" width="7.4" height="2.0" fill="#ffffff" stroke="#d9d9d9" stroke-width="1.1"/>
<line x1="605.4" y1="547.3" x2="605.4" y2="706.9" stroke="#d9d9d9" stroke-width="1.2"/>
<rect x="601.7" y="562.0" width="7.4" height="129.5" fill="#ffffff" stroke="#d9d9d9" stroke-width="1.1"/>
<line x1="617.4" y1="557.6" x2="617.4" y2="631.7" stroke="#d9d9d9" stroke-width="1.2"/>
<rect x="613.7" y="562.6" width="7.4" height="58.3" fill="#000000" stroke="#d9d9d9" stroke-width="1.1"/>
<line x1="629.4" y1="580.9" x2="629.4" y2="646.3" stroke="#d9d9d9" stroke-width="1.2"/>
<rect x="625.7" y="584.1" width="7.4" height="31.1" fill="#ffffff" stroke="#d9d9d9" stroke-width="1.1"/>
<line x1="641.4" y1="518.8" x2="641.4" y2="590.5" stroke="#d9d9d9" stroke-width="1.2"/>
<rect x="637.7" y="545.9" width="7.4" height="30.3" fill="#ffffff" stroke="#d9d9d9" stroke-width="1.1"/>
<line x1="653.4" y1="505.2" x2="653.4" y2="589.4" stroke="#d9d9d9" stroke-width="1.2"/>
<rect x="649.7" y="519.0" width="7.4" height="67.7" fill="#000000" stroke="#d9d9d9" stroke-width="1.1"/>
<line x1="665.4" y1="380.7" x2="665.4" y2="634.8" stroke="#d9d9d9" stroke-width="1.2"/>
<rect x="661.7" y="420.3" width="7.4" height="190.1" fill="#ffffff" stroke="#d9d9d9" stroke-width="1.1"/>
<line x1="677.4" y1="405.2" x2="677.4" y2="488.4" stroke="#d9d9d9" stroke-width="1.2"/>
<rect x="673.7" y="406.7" width="7.4" height="42.7" fill="#ffffff" stroke="#d9d9d9" stroke-width="1.1"/>
<line x1="689.4" y1="385.3" x2="689.4" y2="532.7" stroke="#d9d9d9" stroke-width="1.2"/>
<rect x="685.7" y="424.3" width="7.4" height="98.0" fill="#000000" stroke="#d9d9d9" stroke-width="1.1"/>
<line x1="701.4" y1="469.4" x2="701.4" y2="549.9" stroke="#d9d9d9" stroke-width="1.2"/>
<rect x="697.7" y="485.9" width="7.4" height="45.2" fill="#000000" stroke="#d9d9d9" stroke-width="1.1"/>
<line x1="713.5" y1="461.6" x2="713.5" y2="546.4" stroke="#d9d9d9" stroke-width="1.2"/>
<rect x="709.7" y="478.0" width="7.4" height="28.9" fill="#000000" stroke="#d9d9d9" stroke-width="1.1"/>
<line x1="725.5" y1="469.7" x2="725.5" y2="576.0" stroke="#d9d9d9" stroke-width="1.2"/>
<rect x="721.7" y="510.9" width="7.4" height="31.4" fill="#000000" stroke="#d9d9d9" stroke-width="1.1"/>
<line x1="737.5" y1="506.1" x2="737.5" y2="550.8" stroke="#d9d9d9" stroke-width="1.2"/>
<rect x="733.7" y="522.7" width="7.4" height="23.9" fill="#000000" stroke="#d9d9d9" stroke-width="1.1"/>
<line x1="749.5" y1="526.5" x2="749.5" y2="594.0" stroke="#d9d9d9" stroke-width="1.2"/>
<rect x="745.8" y="546.0" width="7.4" height="45.4" fill="#000000" stroke="#d9d9d9" stroke-width="1.1"/>
<line x1="761.5" y1="598.8" x2="761.5" y2="666.2" stroke="#d9d9d9" stroke-width="1.2"/>
<rect x="757.8" y="617.8" width="7.4" height="35.5" fill="#000000" stroke="#d9d9d9" stroke-width="1.1"/>
<line x1="773.5" y1="629.5" x2="773.5" y2="663.4" stroke="#d9d9d9" stroke-width="1.2"/>
<rect x="769.8" y="653.4" width="7.4" height="9.4" fill="#000000" stroke="#d9d9d9" stroke-width="1.1"/>
<line x1="785.5" y1="601.6" x2="785.5" y2="665.4" stroke="#d9d9d9" stroke-width="1.2"/>
<rect x="781.8" y="602.1" width="7.4" height="26.3" fill="#000000" stroke="#d9d9d9" stroke-width="1.1"/>
<line x1="797.5" y1="556.3" x2="797.5" y2="629.9" stroke="#d9d9d9" stroke-width="1.2"/>
<rect x="793.8" y="579.1" width="7.4" height="14.3" fill="#ffffff" stroke="#d9d9d9" stroke-width="1.1"/>
<line x1="809.5" y1="560.8" x2="809.5" y2="597.0" stroke="#d9d9d9" stroke-width="1.2"/>
<rect x="805.8" y="571.6" width="7.4" height="18.0" fill="#ffffff" stroke="#d9d9d9" stroke-width="1.1"/>
<line x1="821.5" y1="568.2" x2="821.5" y2="621.8" stroke="#d9d9d9" stroke-width="1.2"/>
<rect x="817.8" y="577.1" width="7.4" height="8.8" fill="#000000" stroke="#d9d9d9" stroke-width="1.1"/>
<line x1="833.5" y1="594.0" x2="833.5" y2="654.3" stroke="#d9d9d9" stroke-width="1.2"/>
<rect x="829.8" y="617.4" width="7.4" height="31.1" fill="#000000" stroke="#d9d9d9" stroke-width="1.1"/>
<line x1="845.5" y1="641.8" x2="845.5" y2="663.2" stroke="#d9d9d9" stroke-width="1.2"/>
<rect x="841.8" y="644.6" width="7.4" height="11.4" fill="#000000" stroke="#d9d9d9" stroke-width="1.1"/>
<line x1="857.5" y1="621.1" x2="857.5" y2="656.9" stroke="#d9d9d9" stroke-width="1.2"/>
<rect x="853.8" y="636.0" width="7.4" height="16.0" fill="#000000" stroke="#d9d9d9" stroke-width="1.1"/>
<line x1="869.5" y1="628.1" x2="869.5" y2="670.2" stroke="#d9d9d9" stroke-width="1.2"/>
<rect x="865.8" y="646.3" width="7.4" height="5.1" fill="#ffffff" stroke="#d9d9d9" stroke-width="1.1"/>
<line x1="874.7" y1="56" x2="874.7" y2="900" stroke="#8a94a3" stroke-width="1" stroke-dasharray="5,5"/>
<text x="868.7" y="70.0" font-family="Arial,Helvetica,sans-serif" font-size="11" fill="#8a94a3" text-anchor="end" font-weight="400">heute</text>
<line x1="24" y1="726.4" x2="1300" y2="726.4" stroke="#ff3b3b" stroke-width="1.2" stroke-dasharray="8,5"/>
<text x="32.0" y="740.4" font-family="Arial,Helvetica,sans-serif" font-size="11" fill="#ff3b3b" text-anchor="start" font-weight="400" font-style="italic">hart A: 12.75</text>
<line x1="24" y1="380.7" x2="1300" y2="380.7" stroke="#00c853" stroke-width="1.2" stroke-dasharray="8,5"/>
<text x="32.0" y="394.7" font-family="Arial,Helvetica,sans-serif" font-size="11" fill="#00c853" text-anchor="start" font-weight="400" font-style="italic">hart B: 31.55</text>
<line x1="874.7" y1="556.3" x2="1300" y2="556.3" stroke="#ff4fd8" stroke-width="1" stroke-dasharray="3,4"/>
<line x1="874.7" y1="726.4" x2="1300" y2="726.4" stroke="#ff4fd8" stroke-width="1" stroke-dasharray="3,4"/>
<line x1="1108.6" y1="854.8" x2="1300" y2="854.8" stroke="#ff9f1c" stroke-width="1.4" stroke-dasharray="2,3"/>
<line x1="1108.6" y1="491.2" x2="1300" y2="491.2" stroke="#00c853" stroke-width="1.4" stroke-dasharray="6,3"/>
<line x1="1108.6" y1="726.4" x2="1300" y2="726.4" stroke="#ff9f1c" stroke-width="1.4" stroke-dasharray="2,3"/>
<line x1="1108.6" y1="491.2" x2="1300" y2="491.2" stroke="#00c853" stroke-width="1.4" stroke-dasharray="6,3"/>
<line x1="1108.6" y1="556.3" x2="1300" y2="556.3" stroke="#ff9f1c" stroke-width="1.4" stroke-dasharray="2,3"/>
<line x1="1108.6" y1="687.4" x2="1300" y2="687.4" stroke="#ff3b3b" stroke-width="1.4" stroke-dasharray="6,3"/>
<text x="882.7" y="487.2" font-family="Arial,Helvetica,sans-serif" font-size="10.5" fill="#00c853" text-anchor="start" font-weight="400" font-style="italic">Ziel Box $25.54</text>
<text x="882.7" y="500.2" font-family="Arial,Helvetica,sans-serif" font-size="10.5" fill="#00c853" text-anchor="start" font-weight="400" font-style="italic">TP A $25.54</text>
<text x="882.7" y="552.3" font-family="Arial,Helvetica,sans-serif" font-size="10.5" fill="#ff4fd8" text-anchor="start" font-weight="400" font-style="italic">Wechsel ▲ $22.00</text>
<text x="882.7" y="565.3" font-family="Arial,Helvetica,sans-serif" font-size="10.5" fill="#ff9f1c" text-anchor="start" font-weight="400" font-style="italic">Stop B $22.00</text>
<text x="882.7" y="683.4" font-family="Arial,Helvetica,sans-serif" font-size="10.5" fill="#ff3b3b" text-anchor="start" font-weight="400" font-style="italic">TP B $14.87</text>
<text x="882.7" y="722.4" font-family="Arial,Helvetica,sans-serif" font-size="10.5" fill="#ff4fd8" text-anchor="start" font-weight="400" font-style="italic">Wechsel ▼ $12.75</text>
<text x="882.7" y="735.4" font-family="Arial,Helvetica,sans-serif" font-size="10.5" fill="#ff9f1c" text-anchor="start" font-weight="400" font-style="italic">Stop A $12.75</text>
<text x="882.7" y="850.8" font-family="Arial,Helvetica,sans-serif" font-size="10.5" fill="#ff9f1c" text-anchor="start" font-weight="400" font-style="italic">Stop Box $5.770</text>
<path d="M 874.7,646.3 L 992.8,483.6 L 1046.0,466.9 L 1111.0,372.1 L 1164.1,332.2 L 1229.1,106.0" fill="none" stroke="#00c853" stroke-width="3" stroke-dasharray="9,6" stroke-linejoin="round" stroke-linecap="round"/>
<rect x="1205.1" y="80.0" width="48" height="20" rx="3" fill="#ffffff"/>
<text x="1229.1" y="94.0" font-family="Arial,Helvetica,sans-serif" font-size="12" fill="#000" text-anchor="middle" font-weight="700">45 %</text>
<path d="M 874.7,646.3 L 913.5,694.3 L 931.0,699.2 L 952.3,727.4 L 969.8,732.2 L 991.2,759.1 L 1008.6,765.1 L 1030.0,799.5" fill="none" stroke="#ff3b3b" stroke-width="3" stroke-linejoin="round" stroke-linecap="round"/>
<rect x="1006.0" y="773.5" width="48" height="20" rx="3" fill="#ffffff"/>
<text x="1030.0" y="787.5" font-family="Arial,Helvetica,sans-serif" font-size="12" fill="#000" text-anchor="middle" font-weight="700">55 %</text>
<path d="M 1030.0,799.5 L 1141.8,483.6 L 1168.2,466.9 L 1200.4,372.1 L 1226.7,332.2 L 1258.9,106.0" fill="none" stroke="#00c853" stroke-width="2.2" stroke-dasharray="7,5" stroke-opacity="0.9" stroke-linejoin="round" stroke-linecap="round"/>
<text x="1091.9" y="641.6" font-family="Arial,Helvetica,sans-serif" font-size="10.5" fill="#00c853" text-anchor="start" font-weight="700" font-style="italic">danach ▲</text>
<line x1="24" y1="646.3" x2="1300" y2="646.3" stroke="#ffffff" stroke-width="0.8" stroke-dasharray="2,4"/>
<rect x="1306" y="97.0" width="112" height="18" rx="3" fill="#00c853"/>
<text x="1362.0" y="110.0" font-family="Arial,Helvetica,sans-serif" font-size="10.5" fill="#000" text-anchor="middle" font-weight="700">▲ 46.23 – 46.75</text>
<rect x="1306" y="363.1" width="112" height="18" rx="3" fill="#00c853"/>
<text x="1362.0" y="376.1" font-family="Arial,Helvetica,sans-serif" font-size="10.5" fill="#000" text-anchor="middle" font-weight="700">▲ 31.55 – 32.49</text>
<rect x="1306" y="474.6" width="112" height="18" rx="3" fill="#00c853"/>
<text x="1362.0" y="487.6" font-family="Arial,Helvetica,sans-serif" font-size="10.5" fill="#000" text-anchor="middle" font-weight="700">▲ 25.54 – 26.37</text>
<rect x="1306" y="637.3" width="112" height="18" rx="3" fill="#ffffff"/>
<text x="1362.0" y="650.3" font-family="Arial,Helvetica,sans-serif" font-size="10.5" fill="#000" text-anchor="middle" font-weight="700">17.11</text>
<rect x="1306" y="685.3" width="112" height="18" rx="3" fill="#ff3b3b"/>
<text x="1362.0" y="698.3" font-family="Arial,Helvetica,sans-serif" font-size="10.5" fill="#000" text-anchor="middle" font-weight="700">▼ 14.13 – 14.87</text>
<rect x="1306" y="718.4" width="112" height="18" rx="3" fill="#ff3b3b"/>
<text x="1362.0" y="731.4" font-family="Arial,Helvetica,sans-serif" font-size="10.5" fill="#000" text-anchor="middle" font-weight="700">▼ 12.41 – 12.98</text>
<rect x="1306" y="750.1" width="112" height="18" rx="3" fill="#ff3b3b"/>
<text x="1362.0" y="763.1" font-family="Arial,Helvetica,sans-serif" font-size="10.5" fill="#000" text-anchor="middle" font-weight="700">▼ 10.54 – 11.41</text>
<rect x="1306" y="790.5" width="112" height="18" rx="3" fill="#ff3b3b"/>
<text x="1362.0" y="803.5" font-family="Arial,Helvetica,sans-serif" font-size="10.5" fill="#000" text-anchor="middle" font-weight="700">▼ 8.600 – 8.950</text>
<text x="1308.0" y="904.0" font-family="Arial,Helvetica,sans-serif" font-size="12" fill="#8a94a3" text-anchor="start" font-weight="400">3.311</text>
<text x="1308.0" y="587.5" font-family="Arial,Helvetica,sans-serif" font-size="12" fill="#8a94a3" text-anchor="start" font-weight="400">20.52</text>
<text x="1308.0" y="271.0" font-family="Arial,Helvetica,sans-serif" font-size="12" fill="#8a94a3" text-anchor="start" font-weight="400">37.73</text>
<text x="1308.0" y="165.5" font-family="Arial,Helvetica,sans-serif" font-size="12" fill="#8a94a3" text-anchor="start" font-weight="400">43.47</text>
<text x="1308.0" y="60.0" font-family="Arial,Helvetica,sans-serif" font-size="12" fill="#8a94a3" text-anchor="start" font-weight="400">49.21</text>
<text x="24.0" y="970.0" font-family="Arial,Helvetica,sans-serif" font-size="11" fill="#8a94a3" text-anchor="start" font-weight="400">Zeitachse nach rechts verlängert als Zeichenraum für die Pfade — keine Terminaussage.</text>
<text x="24.0" y="990.0" font-family="Arial,Helvetica,sans-serif" font-size="11" fill="#8a94a3" text-anchor="start" font-weight="400">Technische Chartstudie im HKCM-Stil. Keine Anlageberatung. Zonen sind Wahrscheinlichkeitsannahmen, keine Zusagen.</text>
</svg>